<?xml version="1.0" encoding="UTF-8" standalone="no"?>
<svg
   xmlns:dc="http://purl.org/dc/elements/1.1/"
   xmlns:cc="http://creativecommons.org/ns#"
   xmlns:rdf="http://www.w3.org/1999/02/22-rdf-syntax-ns#"
   xmlns:svg="http://www.w3.org/2000/svg"
   xmlns="http://www.w3.org/2000/svg"
   viewBox="0 0 493 267"
   height="267"
   width="493"
   id="svg45"
   version="1.1">
  <metadata
     id="metadata51">
    <rdf:RDF>
      <cc:Work
         rdf:about="">
        <dc:format>image/svg+xml</dc:format>
        <dc:type
           rdf:resource="http://purl.org/dc/dcmitype/StillImage" />
        <dc:title></dc:title>
      </cc:Work>
    </rdf:RDF>
  </metadata>
  <defs
     id="defs49" />
  <path
     id="path55"
     d="M 92.654988,260.17126 C 91.193306,258.55612 91,254.87809 91,228.68188 V 199.02125 L 47.75,198.76062 C 5.2535409,198.50454 4.5,198.46515 4.5,196.5 c 0,-1.96515 0.7535409,-2.00454 43.25,-2.26062 L 91,193.97875 V 136.5 79.021245 L 47.75,78.760623 C 5.2535409,78.504541 4.5,78.465154 4.5,76.5 4.5,74.534846 5.2535409,74.495459 47.75,74.239377 L 91,73.978755 v -29.83439 c 0,-27.955638 0.118681,-29.941794 1.884634,-31.53996 1.754891,-1.588155 8.553076,-1.680121 98.749996,-1.33589 109.6427,0.418444 109.59187,0.415366 127.86537,7.744668 36.38672,14.594321 63.93011,42.115679 74.97624,74.916264 3.79354,11.264623 7.51972,29.003303 7.52221,35.809933 l 0.002,4.23937 43.25,0.26063 c 42.49646,0.25608 43.25,0.29547 43.25,2.26062 0,1.96515 -0.75354,2.00454 -43.25,2.26062 l -43.25,0.26063 v 4.27482 c 0,2.35115 -0.92418,9.3345 -2.05374,15.51855 -9.52228,52.13211 -48.99953,91.60936 -101.13164,101.13164 C 287.97507,261.92617 284.09729,262 190.94043,262 98.596408,262 94.236561,261.91888 92.654988,260.17126 Z M 296.48558,249.00297 c 23.27222,-4.78845 38.28027,-11.5754 53.86612,-24.35938 30.54639,-25.05507 46.50307,-69.77979 38.6329,-108.28351 C 381.63356,80.39616 363.97426,55.243351 333.9725,38.004268 320.61138,30.32694 308.98741,26.339998 293.21326,24.024135 280.27696,22.124906 274.47164,22.01053 190.75,22.005419 L 102,22 V 136.5 251 h 92.38992 c 88.43744,0 92.80514,-0.0854 102.09566,-1.99703 z"
     style="fill:#000000" />
</svg>
