<?xml version="1.0" encoding="UTF-8" standalone="no"?>
<svg
   xmlns:dc="http://purl.org/dc/elements/1.1/"
   xmlns:cc="http://creativecommons.org/ns#"
   xmlns:rdf="http://www.w3.org/1999/02/22-rdf-syntax-ns#"
   xmlns:svg="http://www.w3.org/2000/svg"
   xmlns="http://www.w3.org/2000/svg"
   xmlns:sodipodi="http://sodipodi.sourceforge.net/DTD/sodipodi-0.dtd"
   xmlns:inkscape="http://www.inkscape.org/namespaces/inkscape"
   viewBox="0 0 310.84732 250.89507"
   height="250.89507"
   width="310.84732"
   id="svg45"
   version="1.1"
   sodipodi:docname="AND.svg"
   inkscape:version="0.92.3 (2405546, 2018-03-11)">
  <sodipodi:namedview
     pagecolor="#ffffff"
     bordercolor="#666666"
     borderopacity="1"
     objecttolerance="10"
     gridtolerance="10"
     guidetolerance="10"
     inkscape:pageopacity="0"
     inkscape:pageshadow="2"
     inkscape:window-width="1920"
     inkscape:window-height="1017"
     id="namedview3848"
     showgrid="false"
     inkscape:zoom="2.0825944"
     inkscape:cx="402.94034"
     inkscape:cy="77.713524"
     inkscape:window-x="-8"
     inkscape:window-y="-8"
     inkscape:window-maximized="1"
     inkscape:current-layer="svg45"
     inkscape:pagecheckerboard="false"
     fit-margin-top="0"
     fit-margin-left="0"
     fit-margin-right="0"
     fit-margin-bottom="0" />
  <metadata
     id="metadata51">
    <rdf:RDF>
      <cc:Work
         rdf:about="">
        <dc:format>image/svg+xml</dc:format>
        <dc:type
           rdf:resource="http://purl.org/dc/dcmitype/StillImage" />
        <dc:title></dc:title>
      </cc:Work>
    </rdf:RDF>
  </metadata>
  <defs
     id="defs49" />
  <path
     id="path55"
     d="M 0,33.039431 C 0,5.0837927 0.118681,3.0976367 1.884634,1.4994707 3.639525,-0.08868427 10.43771,-0.18065027 100.63463,0.16358073 210.27733,0.58202473 210.2265,0.57894673 228.5,7.9082487 264.88672,22.50257 292.43011,50.023928 303.47624,82.824513 c 7.42735,22.201477 9.22367,43.404787 5.47047,64.885177 -9.52228,52.13211 -48.99953,91.60936 -101.13164,101.13164 -10.84,1.97991 -14.71778,2.05374 -107.87464,2.05374 -92.344022,0 -96.703869,-0.0811 -98.285442,-1.82874 C 0.193306,247.45119 0,243.77316 0,217.57695 V 187.91632 M 0,125.39507 V 67.916311 M 205.48558,237.89804 c 23.27222,-4.78845 38.28027,-11.5754 53.86612,-24.35938 30.54639,-25.05507 46.50307,-69.77979 38.6329,-108.28351 C 290.63356,69.291226 272.97426,44.138417 242.9725,26.899334 229.61138,19.222006 217.98741,15.235064 202.21326,12.919201 189.27696,11.019972 183.47164,10.905596 99.75,10.900485 L 11,10.895066 v 114.500004 114.5 h 92.38992 c 88.43744,0 92.80514,-0.0854 102.09566,-1.99703 z"
     style="fill:#000000"
     inkscape:connector-curvature="0"
     sodipodi:nodetypes="cssscccsssccccssssscccsc" />
</svg>
