<?xml version="1.0" encoding="UTF-8" standalone="no"?>
<!DOCTYPE svg PUBLIC "-//W3C//DTD SVG 1.1//EN" "http://www.w3.org/Graphics/SVG/1.1/DTD/svg11.dtd">
<svg version="1.1" xmlns="http://www.w3.org/2000/svg" xmlns:xlink="http://www.w3.org/1999/xlink" preserveAspectRatio="xMidYMid meet" viewBox="205.09433962264154 193.552550037 315.00045 254.89489992600005" width="311" height="250.89"><defs><path d="M253.49 194.56L257.62 194.56L261.99 194.57L266.62 194.58L271.51 194.59L276.66 194.61L282.09 194.63L287.81 194.65L293.82 194.67L300.12 194.69L306.73 194.72L314.75 194.75L322.37 194.78L329.6 194.81L336.46 194.84L342.95 194.87L349.1 194.9L354.9 194.94L360.38 194.98L365.54 195.02L370.39 195.07L374.96 195.13L379.25 195.19L383.27 195.26L387.03 195.33L390.55 195.42L393.84 195.51L396.91 195.62L399.77 195.73L402.44 195.86L404.93 196L407.24 196.15L409.39 196.31L411.4 196.49L413.27 196.69L415.02 196.9L416.65 197.13L418.19 197.37L419.64 197.63L421.01 197.92L422.32 198.22L423.58 198.54L424.81 198.88L426 199.24L427.18 199.63L428.35 200.04L429.53 200.47L430.74 200.93L431.97 201.42L433.26 201.92L434.59 202.46L437.31 203.58L439.99 204.75L442.63 205.96L445.24 207.22L447.81 208.52L450.35 209.87L452.84 211.27L455.3 212.71L457.73 214.19L460.11 215.71L462.45 217.27L464.75 218.88L467.01 220.52L469.22 222.21L471.39 223.93L473.52 225.69L475.61 227.49L477.65 229.32L479.64 231.19L481.59 233.09L483.48 235.03L485.33 237L487.13 239L488.89 241.04L490.59 243.11L492.24 245.2L493.84 247.33L495.38 249.49L496.87 251.67L498.31 253.89L499.7 256.13L501.02 258.39L502.3 260.68L503.51 263L504.67 265.34L505.77 267.7L506.81 270.09L507.79 272.5L508.71 274.93L509.57 277.38L509.85 278.23L510.14 279.11L510.42 280.01L510.7 280.93L510.98 281.87L511.26 282.82L511.54 283.79L511.81 284.77L512.08 285.77L512.35 286.77L512.61 287.78L512.87 288.79L513.12 289.81L513.37 290.84L513.62 291.86L513.86 292.89L514.09 293.91L514.32 294.93L514.54 295.95L514.75 296.95L514.96 297.95L515.16 298.94L515.35 299.92L515.54 300.89L515.71 301.84L515.88 302.77L516.04 303.68L516.18 304.58L516.32 305.45L516.45 306.3L516.57 307.13L516.67 307.93L516.77 308.7L516.85 309.44L516.92 310.16L516.98 310.83L517.03 311.48L517.06 312.09L517.09 312.66L517.09 313.19L517.09 317.43L517.09 326.74L517.09 326.93L517.09 327.13L517.08 327.35L517.07 327.58L517.05 327.83L517.03 328.1L517.01 328.37L516.99 328.67L516.96 328.97L516.93 329.29L516.9 329.62L516.86 329.96L516.83 330.32L516.79 330.68L516.74 331.06L516.7 331.44L516.65 331.83L516.6 332.24L516.55 332.65L516.49 333.07L516.43 333.49L516.38 333.92L516.31 334.36L516.25 334.81L516.19 335.25L516.12 335.71L516.05 336.17L515.98 336.63L515.91 337.09L515.84 337.56L515.76 338.03L515.69 338.5L515.61 338.97L515.53 339.44L515.45 339.92L515.37 340.39L515.29 340.86L515.21 341.33L515.13 341.8L515.04 342.26L514.27 346.15L513.39 349.98L512.4 353.77L511.3 357.5L510.1 361.18L508.79 364.81L507.38 368.38L505.87 371.88L504.26 375.33L502.55 378.72L500.75 382.04L498.85 385.3L496.86 388.49L494.78 391.61L492.6 394.66L490.34 397.64L488 400.55L485.56 403.38L483.05 406.13L480.45 408.81L477.78 411.4L475.02 413.92L472.19 416.35L469.29 418.7L466.31 420.96L463.26 423.13L460.13 425.21L456.94 427.2L453.69 429.1L450.37 430.91L446.98 432.61L443.53 434.22L440.02 435.74L436.46 437.15L432.83 438.45L429.15 439.66L425.42 440.75L421.63 441.74L417.8 442.62L413.91 443.39L413.11 443.54L412.32 443.68L411.55 443.81L410.77 443.93L409.98 444.05L409.18 444.16L408.34 444.27L407.47 444.37L406.55 444.46L405.58 444.55L404.54 444.63L403.43 444.71L402.24 444.78L400.96 444.85L399.58 444.91L398.08 444.97L396.47 445.03L394.73 445.08L392.86 445.12L390.84 445.16L388.67 445.2L386.33 445.24L383.82 445.27L381.13 445.29L378.25 445.32L375.17 445.34L371.88 445.36L368.37 445.38L364.64 445.39L360.67 445.4L356.45 445.42L351.99 445.42L347.26 445.43L342.25 445.44L336.97 445.44L331.4 445.44L325.53 445.45L319.35 445.45L312.86 445.45L306.03 445.45L299.27 445.45L292.83 445.45L286.71 445.45L280.89 445.44L275.36 445.44L270.13 445.44L265.18 445.43L260.5 445.43L256.09 445.42L251.94 445.41L248.04 445.4L244.38 445.38L240.95 445.37L237.75 445.35L234.77 445.33L232 445.31L229.43 445.28L227.06 445.25L224.87 445.22L222.86 445.19L221.02 445.15L219.34 445.11L217.81 445.07L216.43 445.02L215.19 444.97L214.08 444.91L213.1 444.85L212.22 444.78L211.46 444.72L210.79 444.64L210.21 444.56L209.71 444.48L209.29 444.39L208.94 444.3L208.64 444.2L208.39 444.09L208.19 443.98L208.02 443.87L207.87 443.75L207.75 443.62L207.64 443.49L207.54 443.36L207.44 443.21L207.35 443.05L207.26 442.88L207.17 442.68L207.09 442.47L207.02 442.24L206.94 441.98L206.87 441.7L206.81 441.39L206.75 441.06L206.69 440.69L206.63 440.29L206.58 439.85L206.54 439.38L206.49 438.87L206.45 438.32L206.41 437.73L206.37 437.09L206.34 436.41L206.31 435.68L206.28 434.9L206.26 434.07L206.23 433.18L206.21 432.24L206.19 431.24L206.18 430.18L206.16 429.06L206.15 427.87L206.14 426.62L206.13 425.31L206.12 423.92L206.11 422.47L206.11 420.94L206.1 419.33L206.1 417.65L206.1 415.89L206.09 414.05L206.09 412.13L206.09 227.59L206.09 225.54L206.1 223.59L206.1 221.73L206.1 219.96L206.1 218.28L206.11 216.68L206.11 215.16L206.12 213.73L206.13 212.37L206.14 211.09L206.15 209.89L206.17 208.75L206.18 207.69L206.2 206.69L206.23 205.75L206.25 204.87L206.28 204.06L206.31 203.3L206.34 202.59L206.37 201.94L206.41 201.33L206.46 200.78L206.5 200.26L206.55 199.79L206.61 199.36L206.66 198.97L206.73 198.61L206.79 198.29L206.86 197.99L206.94 197.72L207.02 197.48L207.1 197.26L207.19 197.06L207.29 196.88L207.39 196.72L207.5 196.57L207.61 196.43L207.73 196.3L207.85 196.17L207.98 196.05L208.12 195.94L208.29 195.82L208.49 195.72L208.74 195.62L209.03 195.52L209.37 195.43L209.78 195.35L210.26 195.27L210.82 195.2L211.47 195.12L212.2 195.06L213.04 195L213.98 194.94L215.03 194.89L216.21 194.84L217.52 194.8L218.96 194.76L220.55 194.72L222.29 194.69L224.19 194.66L226.25 194.63L228.49 194.61L230.9 194.59L233.51 194.58L236.31 194.57L239.31 194.56L242.52 194.55L245.95 194.55L249.61 194.55L253.49 194.56ZM309.48 434.45L315.96 434.45L322.13 434.45L328 434.45L333.58 434.44L338.88 434.44L343.91 434.44L348.67 434.43L353.17 434.42L357.43 434.41L361.44 434.4L365.22 434.39L368.78 434.38L372.13 434.36L375.26 434.34L378.2 434.32L380.95 434.3L383.52 434.27L385.91 434.24L388.14 434.2L390.21 434.17L392.14 434.12L393.92 434.08L395.57 434.03L397.1 433.98L398.51 433.92L399.82 433.86L401.03 433.8L402.14 433.72L403.18 433.65L404.14 433.57L405.04 433.48L405.88 433.39L406.68 433.3L407.43 433.19L408.15 433.09L408.85 432.97L409.54 432.85L410.21 432.72L410.89 432.59L411.58 432.45L413.31 432.09L415.01 431.72L416.68 431.34L418.32 430.95L419.94 430.55L421.52 430.15L423.09 429.73L424.62 429.31L426.13 428.87L427.62 428.42L429.09 427.96L430.53 427.49L431.96 427.01L433.36 426.52L434.74 426.01L436.11 425.49L437.45 424.96L438.78 424.41L440.1 423.85L441.4 423.27L442.68 422.68L443.95 422.07L445.21 421.45L446.45 420.81L447.69 420.15L448.91 419.48L450.13 418.79L451.34 418.09L452.53 417.36L453.73 416.62L454.91 415.85L456.09 415.07L457.27 414.27L458.44 413.45L459.61 412.61L460.78 411.75L461.95 410.87L463.11 409.96L464.28 409.04L465.45 408.09L467.71 406.18L469.92 404.19L472.07 402.13L474.16 400.01L476.2 397.82L478.18 395.58L480.09 393.27L481.95 390.9L483.74 388.49L485.48 386.02L487.14 383.5L488.75 380.93L490.29 378.32L491.76 375.66L493.17 372.97L494.51 370.24L495.78 367.47L496.98 364.68L498.11 361.85L499.17 358.99L500.16 356.11L501.07 353.21L501.91 350.28L502.68 347.34L503.37 344.38L503.98 341.41L504.52 338.43L504.98 335.44L505.36 332.45L505.66 329.45L505.88 326.45L506.02 323.45L506.07 320.45L506.04 317.47L505.93 314.49L505.73 311.52L505.45 308.56L505.08 305.63L504.62 302.71L504.08 299.81L503.51 297.13L502.9 294.49L502.25 291.9L501.56 289.34L500.84 286.82L500.07 284.34L499.26 281.9L498.42 279.5L497.53 277.14L496.6 274.82L495.63 272.53L494.62 270.28L493.58 268.07L492.48 265.89L491.35 263.76L490.18 261.65L488.96 259.59L487.71 257.56L486.41 255.57L485.07 253.61L483.68 251.68L482.26 249.8L480.79 247.94L479.27 246.12L477.72 244.34L476.12 242.59L474.48 240.87L472.79 239.18L471.06 237.53L469.29 235.91L467.47 234.32L465.6 232.77L463.69 231.24L461.74 229.75L459.74 228.29L457.7 226.86L455.61 225.47L453.47 224.1L451.29 222.76L449.07 221.45L448.07 220.88L447.07 220.33L446.09 219.79L445.1 219.26L444.13 218.74L443.15 218.24L442.18 217.75L441.21 217.27L440.24 216.81L439.28 216.35L438.32 215.91L437.35 215.48L436.39 215.07L435.42 214.66L434.46 214.27L433.49 213.88L432.52 213.51L431.55 213.15L430.57 212.79L429.59 212.45L428.61 212.12L427.62 211.8L426.62 211.48L425.62 211.18L424.61 210.89L423.6 210.6L422.57 210.33L421.54 210.06L420.5 209.8L419.45 209.55L418.39 209.31L417.32 209.08L416.24 208.85L415.15 208.63L414.04 208.42L412.92 208.22L411.79 208.02L410.64 207.83L409.48 207.65L408.31 207.47L407.35 207.33L406.41 207.2L405.48 207.07L404.56 206.95L403.62 206.84L402.68 206.73L401.72 206.63L400.72 206.53L399.69 206.44L398.61 206.36L397.48 206.27L396.29 206.2L395.03 206.13L393.7 206.06L392.28 206L390.76 205.94L389.15 205.89L387.43 205.84L385.59 205.79L383.62 205.75L381.52 205.71L379.28 205.68L376.9 205.65L374.35 205.62L371.65 205.59L368.76 205.57L365.7 205.55L362.45 205.53L359.01 205.52L355.36 205.5L351.49 205.49L347.41 205.48L343.1 205.47L338.55 205.47L333.75 205.46L328.71 205.46L323.4 205.46L317.83 205.45L311.98 205.45L305.84 205.45L217.09 205.45L217.09 434.45L309.48 434.45Z" id="c4rKwLaWM"></path></defs><g><g><use xlink:href="#c4rKwLaWM" opacity="1" fill="#000000" fill-opacity="1"></use><g><use xlink:href="#c4rKwLaWM" opacity="1" fill-opacity="0" stroke="#000000" stroke-width="1" stroke-opacity="0"></use></g></g></g></svg>