<?xml version="1.0" encoding="UTF-8" standalone="no"?>
<svg
   xmlns:dc="http://purl.org/dc/elements/1.1/"
   xmlns:cc="http://creativecommons.org/ns#"
   xmlns:rdf="http://www.w3.org/1999/02/22-rdf-syntax-ns#"
   xmlns:svg="http://www.w3.org/2000/svg"
   xmlns="http://www.w3.org/2000/svg"
   xmlns:sodipodi="http://sodipodi.sourceforge.net/DTD/sodipodi-0.dtd"
   xmlns:inkscape="http://www.inkscape.org/namespaces/inkscape"
   enable-background="new 0 0 32 32"
   height="20"
   id="Layer_1"
   version="1.1"
   viewBox="0 0 32 32"
   width="62.063324"
   xml:space="preserve"
   sodipodi:docname="delete.svg"
   inkscape:version="0.92.3 (2405546, 2018-03-11)"><metadata
     id="metadata3835"><rdf:RDF><cc:Work
         rdf:about=""><dc:format>image/svg+xml</dc:format><dc:type
           rdf:resource="http://purl.org/dc/dcmitype/StillImage" /><dc:title></dc:title></cc:Work></rdf:RDF></metadata><defs
     id="defs3833" /><sodipodi:namedview
     pagecolor="#ffffff"
     bordercolor="#666666"
     borderopacity="1"
     objecttolerance="10"
     gridtolerance="10"
     guidetolerance="10"
     inkscape:pageopacity="0"
     inkscape:pageshadow="2"
     inkscape:window-width="1920"
     inkscape:window-height="1017"
     id="namedview3831"
     showgrid="false"
     inkscape:zoom="11.313709"
     inkscape:cx="17.431684"
     inkscape:cy="21.413936"
     inkscape:window-x="-8"
     inkscape:window-y="-8"
     inkscape:window-maximized="1"
     inkscape:current-layer="Layer_1" /><path
     d="M20.377,16.519l6.567-6.566c0.962-0.963,0.962-2.539,0-3.502l-0.876-0.875c-0.963-0.964-2.539-0.964-3.501,0  L16,12.142L9.433,5.575c-0.962-0.963-2.538-0.963-3.501,0L5.056,6.45c-0.962,0.963-0.962,2.539,0,3.502l6.566,6.566l-6.566,6.567  c-0.962,0.963-0.962,2.538,0,3.501l0.876,0.876c0.963,0.963,2.539,0.963,3.501,0L16,20.896l6.567,6.566  c0.962,0.963,2.538,0.963,3.501,0l0.876-0.876c0.962-0.963,0.962-2.538,0-3.501L20.377,16.519z"
     fill="#515151"
     id="path3828" /><path
     style="fill:#ff0000;stroke-width:0.13559322"
     d="M 6.779661,27.934053 C 6.2201909,27.69299 4.9510348,26.490816 4.6481499,25.915037 4.3926424,25.429323 4.3699678,24.263761 4.6070734,23.803551 4.7012543,23.620751 6.3406273,21.899985 8.2501245,19.97963 L 11.721937,16.488072 8.1774422,12.928782 C 5.1368974,9.8755455 4.6115007,9.2882805 4.4821066,8.7983005 4.1754644,7.6371302 4.9267972,6.2598301 6.3655296,5.3457178 7.0195245,4.9301959 7.9164175,4.8356842 8.6352407,5.1065428 8.8451803,5.1856498 10.588136,6.8162918 12.508475,8.7301917 L 16,12.21001 19.491525,8.7301917 c 1.920339,-1.9138999 3.663294,-3.5445419 3.873234,-3.6236489 0.718823,-0.2708586 1.615717,-0.1763469 2.269712,0.239175 0.675681,0.4293004 1.364336,1.1637988 1.708482,1.8222141 0.264902,0.5068034 0.28977,1.537029 0.04854,2.0111157 -0.09124,0.1793204 -1.729636,1.8966624 -3.640877,3.8163144 l -3.474984,3.490278 3.473026,3.492774 c 1.910164,1.921025 3.550083,3.642337 3.644263,3.825137 0.237107,0.46021 0.214431,1.625772 -0.04108,2.111486 -0.313175,0.595343 -1.581829,1.783896 -2.161053,2.024612 -1.335168,0.554872 -1.646599,0.353086 -5.699271,-3.692742 L 16,20.761277 l -3.491525,3.48563 c -4.0513027,4.044461 -4.3914525,4.263386 -5.728814,3.687146 z"
     id="path3837"
     inkscape:connector-curvature="0" /><path
     style="fill:#800000;stroke-width:0.00847458"
     d="m 7.6425728,28.178227 c 0.3088104,-0.02703 0.4272566,-0.05769 0.6652542,-0.172187 0.4609609,-0.221763 1.0309048,-0.677102 2.020986,-1.614606 0.584879,-0.55382 1.097853,-1.059847 2.976884,-2.93657 l 1.336852,-1.335212 0.06569,-0.0024 0.06569,-0.0024 -2.699153,2.700115 c -1.730767,1.731385 -2.7371581,2.732066 -2.8050846,2.789168 -0.428984,0.360622 -0.9547201,0.557784 -1.529661,0.573654 -0.074576,0.0021 -0.1184322,0.0022 -0.097458,4.04e-4 z"
     id="path3839"
     inkscape:connector-curvature="0" /><path
     style="fill:#800000;stroke-width:0.01694915"
     d="M 7.0769564,28.100824 C 6.8722684,28.047476 6.7201913,27.98831 6.5288852,27.887598 6.2331696,27.731919 6.124644,27.639936 5.5000155,27.015559 4.850672,26.366478 4.761354,26.258615 4.6014106,25.930383 4.4170459,25.552034 4.3513479,25.26815 4.3503729,24.845637 c -9.726e-4,-0.421439 0.068856,-0.734649 0.243246,-1.091065 0.1926908,-0.393817 0.00671,-0.197426 3.4670356,-3.661096 1.7450536,-1.74674 3.1810195,-3.173011 3.1910355,-3.169492 0.01002,0.0035 -0.898506,0.92988 -2.018939,2.058579 -2.9098395,2.931307 -4.4108336,4.490588 -4.6052022,4.784031 -0.1334827,0.201522 -0.1939328,0.570227 -0.18108,1.104467 0.015433,0.641492 0.1003911,0.94725 0.3611919,1.299905 0.4132788,0.558836 1.3083613,1.390954 1.8151311,1.687446 0.1145958,0.06705 0.4403941,0.202045 0.6049816,0.250683 0.1585594,0.04686 0.034619,0.04006 -0.150817,-0.0083 z"
     id="path3841"
     inkscape:connector-curvature="0" /><path
     style="fill:#800000;stroke-width:0.01694915"
     d="m 23.814245,28.123048 c -0.321186,-0.06731 -0.590836,-0.180147 -0.871935,-0.364882 -0.158458,-0.104138 -0.408407,-0.34981 -3.556059,-3.495207 l -3.38562,-3.383195 -0.615753,0.61558 c -0.581532,0.581368 -0.618806,0.615273 -0.670675,0.610055 -0.0533,-0.0054 -0.03513,-0.02495 0.617146,-0.665087 l 0.672068,-0.659564 0.604566,0.600826 c 0.332512,0.330454 1.504567,1.496893 2.604567,2.592087 1.860497,1.852368 2.541525,2.516276 3.050847,2.974153 0.785308,0.705987 1.320653,1.071482 1.724345,1.177258 0.10776,0.02824 0.114658,0.03223 0.05532,0.03199 -0.03729,-1.52e-4 -0.140254,-0.01545 -0.228813,-0.03401 z"
     id="path3843"
     inkscape:connector-curvature="0" /><path
     style="fill:#800000;stroke-width:0.01694915"
     d=""
     id="path3845"
     inkscape:connector-curvature="0" /><path
     style="fill:#800000;stroke-width:0.01694915"
     d="m 14.670177,22.0914 c 0.0058,-0.0093 0.01384,-0.01695 0.01795,-0.01695 0.0041,0 0.0075,0.0076 0.0075,0.01695 0,0.0093 -0.0081,0.01695 -0.01795,0.01695 -0.0099,0 -0.01324,-0.0076 -0.0075,-0.01695 z"
     id="path3847"
     inkscape:connector-curvature="0" /><path
     style="fill:#800000;stroke-width:0.01694915"
     d="m 24.708409,28.116988 c 0.211519,-0.05466 0.5199,-0.179974 0.689651,-0.280239 0.310814,-0.183583 0.689749,-0.494125 1.125733,-0.922552 0.474447,-0.466222 0.792977,-0.86497 0.884061,-1.106695 0.11014,-0.292302 0.161364,-0.69868 0.146872,-1.165185 -0.01576,-0.507208 -0.07926,-0.752869 -0.248899,-0.962885 -0.450526,-0.557747 -2.082094,-2.233876 -6.200607,-6.369956 l -0.820796,-0.824297 2.142029,-2.151158 C 25.047354,11.701949 26.203494,10.517883 26.974471,9.6761459 27.407099,9.2038116 27.442113,9.1482942 27.51429,8.8202137 27.54419,8.6843186 27.54986,8.5996976 27.55062,8.2778408 27.55242,7.5431271 27.441266,7.2104605 26.995861,6.6168238 26.929418,6.5282645 26.81864,6.3923944 26.74969,6.3148902 26.68074,6.237386 26.627694,6.1706066 26.631809,6.1664914 c 0.0041,-0.00412 0.117774,0.1050602 0.252575,0.2426117 0.348426,0.3555358 0.51803,0.6230796 0.64742,1.0212801 0.09098,0.2800086 0.118857,0.4608576 0.118857,0.7711864 0,0.5154103 -0.131593,0.9544549 -0.414879,1.3841946 -0.09354,0.1418957 -0.452519,0.5066848 -3.487339,3.5437708 l -3.383067,3.385593 3.357369,3.36017 c 1.98005,1.981703 3.392739,3.408422 3.443589,3.47779 0.485137,0.661814 0.617243,1.492968 0.360132,2.265792 -0.116399,0.349873 -0.272443,0.612944 -0.536131,0.903856 -0.277745,0.306417 -1.077484,1.081237 -1.2222,1.184117 -0.282145,0.200578 -0.626694,0.351767 -0.95336,0.418337 -0.229,0.04667 -0.298071,0.04134 -0.106366,-0.0082 z"
     id="path3849"
     inkscape:connector-curvature="0" /><path
     style="fill:#800000;stroke-width:0.00390625"
     d="m 27.120169,23.300496 c -0.173633,-0.185438 -0.878743,-0.898999 -2.182833,-2.208997 -0.416521,-0.418408 -0.755776,-0.760742 -0.7539,-0.760742 0.0019,0 0.640767,0.637646 1.419758,1.416992 0.944117,0.944546 1.431877,1.435226 1.462922,1.47168 0.05502,0.06461 0.100792,0.122745 0.09847,0.125071 -9.12e-4,9.12e-4 -0.0209,-0.01889 -0.04441,-0.044 z"
     id="path3851"
     inkscape:connector-curvature="0" /><path
     style="fill:#800000;stroke-width:0.00390625"
     d="m 27.096531,23.445128 c -0.198006,-0.217426 -0.33025,-0.360184 -0.534687,-0.577197 -0.159174,-0.168965 -0.420167,-0.44309 -0.431126,-0.452819 -0.0046,-0.0041 -0.0084,-0.0092 -0.0084,-0.01142 0,-0.0063 0.0091,0.003 0.214603,0.218083 0.398474,0.41707 0.802517,0.853323 0.796184,0.859655 -0.001,0.001 -0.01748,-0.01532 -0.03659,-0.0363 z"
     id="path3853"
     inkscape:connector-curvature="0" /><path
     style="fill:#800000;stroke-width:0.00390625"
     d="m 27.481711,25.750684 c 0,-0.0014 0.01038,-0.03115 0.02308,-0.06606 0.123964,-0.340879 0.172874,-0.704795 0.142584,-1.060903 -0.03521,-0.413972 -0.170541,-0.803572 -0.402815,-1.15966 -0.02014,-0.03088 -0.0358,-0.05697 -0.0348,-0.05797 0.0024,-0.0024 0.06404,0.08992 0.100912,0.15122 0.3756,0.624345 0.45608,1.394433 0.218055,2.086482 -0.03064,0.08908 -0.03743,0.106289 -0.04265,0.10803 -0.0024,7.98e-4 -0.0044,2.82e-4 -0.0044,-0.0011 z"
     id="path3855"
     inkscape:connector-curvature="0" /><path
     style="fill:#800000;stroke-width:0.00390625"
     d=""
     id="path3857"
     inkscape:connector-curvature="0" /><path
     style="fill:#800000;stroke-width:0.00390625"
     d=""
     id="path3859"
     inkscape:connector-curvature="0" /><path
     style="fill:#800000;stroke-width:0.00390625"
     d=""
     id="path3861"
     inkscape:connector-curvature="0" /><path
     style="fill:#800000;stroke-width:0.00552427"
     d="m 20.159307,7.9861451 c 1.362632,-1.3614641 2.508221,-2.5017657 2.545752,-2.5340035 0.391667,-0.3364215 0.855984,-0.532868 1.387653,-0.5870973 0.089,-0.00908 0.358215,-0.0091 0.447466,-2.86e-5 0.525753,0.053408 0.970792,0.2385828 1.370522,0.5702544 0.06893,0.057197 0.986912,0.9671047 1.103194,1.0934953 0.08883,0.096556 0.233961,0.2827953 0.226322,0.2904347 -0.0014,0.0014 -0.02131,-0.022984 -0.04425,-0.054178 C 27.098456,6.6324446 26.965167,6.4846673 26.771519,6.2944369 26.64784,6.17294 26.613536,6.1434833 26.636449,6.1784539 c 0.02128,0.032472 4.97e-4,0.014571 -0.07214,-0.062147 C 26.280367,5.816436 25.893552,5.4993759 25.581503,5.3107386 25.307365,5.1450185 24.954901,5.0246632 24.603707,4.9768529 24.473752,4.9591613 24.38876,4.9537565 24.239476,4.953691 24.051215,4.9536084 23.904373,4.966916 23.739159,4.999033 23.601689,5.025756 23.387114,5.089281 23.337374,5.11798 23.058743,5.2787477 21.516395,6.719542 19.778296,8.4427155 19.585339,8.6340161 19.050732,9.166625 18.590281,9.6262907 l -0.837183,0.8357563 -0.03565,-2.56e-4 -0.03565,-2.56e-4 z"
     id="path3863"
     inkscape:connector-curvature="0" /><path
     style="fill:#800000;stroke-width:0.00390625"
     d="M 12.323895,8.5443575 C 10.677108,6.9136429 9.3307018,5.6417902 8.8180353,5.2326251 8.6874085,5.1283704 8.6636043,5.1139226 8.5699884,5.0820748 8.1508439,4.9394834 7.6818725,4.913766 7.2164728,5.0078509 6.9117713,5.0694492 6.6258536,5.1815833 6.376629,5.3372295 6.1243614,5.494776 5.8411589,5.7096428 5.6278246,5.90535 5.5840586,5.9455 5.5817066,5.947079 5.5817066,5.936329 c 0,-0.0098 0.029157,-0.040051 0.2158204,-0.2239369 C 5.9162286,5.5954572 6.0291681,5.4857516 6.048504,5.4686019 6.2680441,5.273885 6.5347385,5.1149372 6.8207196,5.0083675 7.1480438,4.8863914 7.5122362,4.8353248 7.8668634,4.8616785 c 0.5556214,0.04129 1.0744051,0.2640323 1.4824219,0.6364841 0.02793,0.025495 0.7662097,0.7618844 1.6406227,1.6364205 l 1.589843,1.5900657 -0.03711,-2.117e-4 -0.03711,-2.117e-4 z"
     id="path3865"
     inkscape:connector-curvature="0" /><path
     style="fill:#800000;stroke-width:0.00390625"
     d="M 5.1531109,10.04537 C 5.0627709,9.9545983 4.97491,9.8645105 4.9578646,9.8451745 4.6124329,9.4533249 4.4037174,8.9759401 4.3490212,8.4525964 4.3242296,8.2153862 4.3365687,7.9562405 4.3841075,7.7157111 4.461739,7.3229237 4.6315983,6.9580731 4.8808659,6.6486951 c 0.0753,-0.093459 0.1090074,-0.12886 0.4089509,-0.4295044 0.2301522,-0.23069 0.289938,-0.2886459 0.292145,-0.2832031 0.00215,0.0053 -0.010619,0.020022 -0.056772,0.065437 C 5.2773863,6.2452632 5.0994601,6.4572096 4.9332865,6.7065026 4.6393088,7.1475269 4.4704134,7.594316 4.4223684,8.0580651 c -0.00842,0.081272 -0.00967,0.3197447 -0.00207,0.3964844 0.018361,0.1855574 0.055966,0.3563369 0.1048548,0.4761829 0.1050122,0.2574268 0.3624651,0.5954724 0.8879713,1.1659406 0.046278,0.05024 0.088225,0.09638 0.093215,0.102539 l 0.00907,0.0112 h -0.099021 -0.099021 z"
     id="path3867"
     inkscape:connector-curvature="0" /><path
     style="fill:#800000;stroke-width:0.00390625"
     d="m 6.5914375,11.486431 -1.2753862,-1.275391 0.1015603,1.67e-4 0.1015602,1.67e-4 0.066089,0.07112 c 0.3675143,0.395501 1.0802976,1.126599 2.0706294,2.123832 0.1783203,0.179563 0.3302765,0.333007 0.3376803,0.340986 l 0.013462,0.01451 h -0.070104 -0.070105 z"
     id="path3869"
     inkscape:connector-curvature="0" /><path
     style="fill:#800000;stroke-width:0.00390625"
     d="m 9.1168281,14.011821 -1.2499954,-1.25 h 0.07075 0.07075 l 0.8763492,0.879883 c 0.4819921,0.483936 1.0424888,1.046436 1.2455491,1.25 l 0.369199,0.370117 h -0.0663 -0.0663 z"
     id="path3871"
     inkscape:connector-curvature="0" /><path
     style="fill:#800000;stroke-width:0.00390625"
     d="m 10.61062,17.532326 c 0.555907,-0.55591 1.010739,-1.012499 1.010739,-1.014644 0,-0.0021 -0.281687,-0.28559 -0.625972,-0.62988 l -0.625972,-0.625981 h 0.06479 0.06479 l 0.610616,0.613507 0.610616,0.613506 -0.318127,0.319111 c -0.17497,0.175511 -0.595635,0.598183 -0.934809,0.939272 -0.339175,0.341088 -0.6175255,0.619317 -0.6185564,0.618286 -0.00103,-0.001 0.127189,-0.132447 0.2849334,-0.292036 0.595975,-0.602945 1.09137,-1.110941 1.111729,-1.140007 0.0055,-0.0079 0.0055,-0.0083 -3.07e-4,-0.0051 -0.01571,0.0088 -0.315937,0.304526 -1.098878,1.082435 -0.2946287,0.292736 -0.5380844,0.532247 -0.5410125,0.532247 -0.00293,0 0.4495085,-0.454835 1.0054155,-1.010745 z"
     id="path3873"
     inkscape:connector-curvature="0" /></svg>