<?xml version="1.0" encoding="UTF-8" standalone="no"?>
<!-- Created with Inkscape (http://www.inkscape.org/) -->

<svg
   xmlns:dc="http://purl.org/dc/elements/1.1/"
   xmlns:cc="http://creativecommons.org/ns#"
   xmlns:rdf="http://www.w3.org/1999/02/22-rdf-syntax-ns#"
   xmlns:svg="http://www.w3.org/2000/svg"
   xmlns="http://www.w3.org/2000/svg"
   xmlns:sodipodi="http://sodipodi.sourceforge.net/DTD/sodipodi-0.dtd"
   xmlns:inkscape="http://www.inkscape.org/namespaces/inkscape"
   width="93.75042mm"
   height="66.400642mm"
   viewBox="0 0 93.75042 66.400642"
   version="1.1"
   id="svg46"
   inkscape:version="0.92.3 (2405546, 2018-03-11)"
   sodipodi:docname="EQU.svg">
  <defs
     id="defs40" />
  <sodipodi:namedview
     id="base"
     pagecolor="#ffffff"
     bordercolor="#666666"
     borderopacity="1.0"
     inkscape:pageopacity="0.0"
     inkscape:pageshadow="2"
     inkscape:zoom="2.8"
     inkscape:cx="159.66539"
     inkscape:cy="104.21652"
     inkscape:document-units="mm"
     inkscape:current-layer="layer1"
     showgrid="false"
     fit-margin-top="0"
     fit-margin-left="0"
     fit-margin-right="0"
     fit-margin-bottom="0"
     inkscape:window-width="1920"
     inkscape:window-height="1017"
     inkscape:window-x="-8"
     inkscape:window-y="-8"
     inkscape:window-maximized="1" />
  <metadata
     id="metadata43">
    <rdf:RDF>
      <cc:Work
         rdf:about="">
        <dc:format>image/svg+xml</dc:format>
        <dc:type
           rdf:resource="http://purl.org/dc/dcmitype/StillImage" />
        <dc:title></dc:title>
      </cc:Work>
    </rdf:RDF>
  </metadata>
  <g
     inkscape:label="Livello 1"
     inkscape:groupmode="layer"
     id="layer1"
     transform="translate(-46.311329,-86.289308)">
    <path
       id="path7909"
       d="m 53.279252,100.06635 c -1.22547,-3.127248 -3.99527,-8.091996 -5.6946,-10.207346 l -1.062742,-1.32292 0.728745,-0.60839 c 1.459117,-1.21815 1.478207,-1.21431 2.763167,0.55517 1.5856,2.18348 3.8854,6.344598 5.93961,10.746768 l 1.35173,3.561418 5.05147,0.18412 -1.14279,-2.91625 c -1.28947,-3.290558 -3.82304,-7.813116 -5.73509,-10.237436 -1.39991,-1.77496 -1.55439,-2.41176 -0.75959,-3.13104 0.48826,-0.44187 1.18623,-0.46309 10.78177,-0.32777 11.71996,0.16527 15.74971,0.52899 21.23992,1.91705 9.52752,2.40879 20.031188,7.758178 26.441158,13.466136 5.23408,4.66086 10.86335,11.17003 13.39339,15.48688 l 0.93349,1.59276 v 0 l -0.11409,0.63342 0.0981,0.70026 v 0 l -0.69332,1.38637 c -0.38133,0.7625 -1.71402,2.75558 -2.96153,4.42907 -6.38657,8.56731 -14.08562,15.07713 -23.27398,19.67898 -7.346518,3.67939 -12.332328,5.20272 -21.312178,6.51157 -3.17527,0.46281 -4.99028,0.53132 -13.89062,0.52432 -6.46032,-0.005 -10.40895,-0.10755 -10.70111,-0.27773 -0.80481,-0.46875 -0.53765,-1.52894 0.81862,-3.24858 1.91017,-2.42194 4.44521,-6.94584 5.73131,-10.22779 l 1.54504,-4.36181 -4.82204,0.15173 -1.48863,4.26059 c -1.48032,4.2368 -4.9938,9.84215 -6.41647,11.65371 l -1.18894,1.51394 -1.15439,-0.82901 c -0.71801,-0.51564 -1.073412,-0.93792 -0.940167,-1.11708 0.117821,-0.15842 0.635124,-0.82383 1.149556,-1.47867 1.591671,-2.02611 4.185251,-6.74828 5.377721,-9.7913 l 1.13818,-2.90449 v 0 l 0.40652,-1.45942 v 0 0 l 0.61791,-1.98437 c 1.133,-3.6385 1.93775,-9.02276 1.93775,-12.96459 0,-3.85412 -0.75375,-8.97167 -1.92901,-13.09687 m 23.44408,42.72599 c 11.10722,-1.69847 18.47738,-4.41272 26.813758,-9.87485 6.29276,-4.12312 10.65494,-8.37698 15.85953,-15.46569 1.52691,-2.07967 2.84034,-3.94836 2.91873,-4.15264 0.15809,-0.41198 -0.55871,-1.52263 -3.7591,-5.82448 -7.26591,-9.76658 -15.09367,-15.636138 -27.483898,-20.608498 -4.0657,-1.631618 -8.93891,-2.823888 -14.30054,-3.498738 -3.22461,-0.40588 -20.24063,-0.87692 -20.24063,-0.56031 0,0.0692 0.67163,1.30188 1.49251,2.73936 2.90499,5.087068 5.02686,9.894886 6.01859,13.637106 2.67901,10.10911 2.6869,17.6987 0.029,27.89066 -0.96119,3.68573 -3.11544,8.57137 -6.02835,13.67178 l -1.4733,2.57968 h 8.33284 c 7.02488,0 8.88033,-0.0837 11.82089,-0.53338 z m -15.51473,-16.66453 c 1.13291,-3.64169 1.93716,-9.02418 1.93716,-12.96459 0,-3.85276 -0.73875,-8.97165 -1.92843,-13.09687 l -1.02454,-3.55258 -5.05147,-0.18412 c 2.32203,7.68278 3.56499,17.19043 2.32511,24.50649 -0.3576,2.11005 -0.88576,4.6445 -1.17369,5.63211 l -0.52352,1.79566 4.82204,-0.15173 z"
       style="fill:#000000;stroke-width:0.26458332"
       inkscape:connector-curvature="0"
       sodipodi:nodetypes="cscsssccsscssssccccccsssscscccsscscsscccccsscssscsssssssscssscsccssccsc" />
    <path
       id="path8155"
       d="m 125.619,116.84112 c 0,0 2.8567,-1.83791 3.81247,-2.46414 3.43826,-2.25273 8.30011,-0.7454 9.91846,2.91397 0.34315,0.77594 0.62392,1.58367 0.62392,1.79496 0,0.32188 0,0 0,0 0,0 0.0879,0.37607 0.0879,0.88683 0,0.51076 -0.0879,1.22507 -0.0879,1.22507 0,0 0,-0.32188 0,0 0,0.9642 -1.31159,3.22963 -2.34628,4.05259 -2.28686,1.81889 -5.19466,2.02862 -7.9213,0.57134 -1.56299,-0.83536 -4.13451,-4.44489 -4.13451,-4.44489 m -79.260431,13.97297 v 0 m 88.592271,-9.90104 c 1.63581,-0.57714 2.7014,-1.47815 3.2513,-2.74913 1.04539,-2.41619 0.36161,-5.4328 -1.51919,-6.70219 -2.09734,-1.41554 -4.10804,-1.37064 -6.28281,-0.26861 -1.60768,0.81467 -2.86003,1.19239 -2.86003,4.43033 0,1.57792 1.21722,3.00745 1.35578,3.26634 0.3806,0.71117 2.09502,1.93195 3.02498,2.15398 1.28202,0.30609 1.86296,0.28103 3.02997,-0.13072 z"
       style="fill:#000000;stroke-width:0.26458332"
       inkscape:connector-curvature="0"
       sodipodi:nodetypes="cssscscsssccccssscccc" />
  </g>
</svg>
