<?xml version="1.0" encoding="UTF-8" standalone="no"?>
<svg
   xmlns:dc="http://purl.org/dc/elements/1.1/"
   xmlns:cc="http://creativecommons.org/ns#"
   xmlns:rdf="http://www.w3.org/1999/02/22-rdf-syntax-ns#"
   xmlns:svg="http://www.w3.org/2000/svg"
   xmlns="http://www.w3.org/2000/svg"
   viewBox="0 0 497 261"
   height="261"
   width="497"
   id="svg127"
   version="1.1">
  <metadata
     id="metadata133">
    <rdf:RDF>
      <cc:Work
         rdf:about="">
        <dc:format>image/svg+xml</dc:format>
        <dc:type
           rdf:resource="http://purl.org/dc/dcmitype/StillImage" />
        <dc:title></dc:title>
      </cc:Work>
    </rdf:RDF>
  </metadata>
  <defs
     id="defs131" />
  <path
     id="path139"
     d="M 126.2,252.8 C 125.29388,251.89388 125,237.20176 125,192.80793 V 134.01586 L 65.75,133.75793 C 7.2526434,133.50328 6.5,133.47459 6.5,131.5 c 0,-1.97459 0.7526434,-2.00328 59.25,-2.25793 L 125,128.98414 V 69.69207 c 0,-44.782721 0.29365,-59.585722 1.2,-60.49207 1.74265,-1.7426516 242.85735,-1.7426516 244.6,0 0.90254,0.902537 1.2,14.078886 1.2,53.154988 0,49.400362 0.0861,51.879342 1.75,50.416512 3.10795,-2.73229 10.19777,-5.82975 15.65136,-6.8379 4.56744,-0.84434 6.00746,-0.68891 10.20811,1.10183 2.68979,1.14666 6.61691,3.74528 8.72693,5.7747 3.8662,3.71854 8.6636,11.82761 8.6636,14.64415 0,1.32823 4.58947,1.554 36.25,1.78325 35.49584,0.25701 36.25,0.30408 36.25,2.26247 0,1.95807 -0.7548,2.00554 -36,2.2644 l -36,0.26441 -1.94644,4.72105 c -2.7044,6.55945 -9.02995,13.10335 -15.40449,15.93622 -4.7425,2.10758 -5.96005,2.26536 -10.7081,1.38764 -5.48818,-1.01455 -12.57569,-4.10648 -15.69097,-6.84522 -1.66395,-1.46283 -1.75,1.01615 -1.75,50.41651 0,39.0761 -0.29746,52.25245 -1.2,53.15499 -1.74265,1.74265 -242.85735,1.74265 -244.6,0 z M 365,131 V 15 H 248.5 132 V 131 247 H 248.5 365 Z m 33.0958,19.4662 c 2.39099,-0.84359 5.41711,-2.53109 6.72471,-3.75 C 408.45844,143.32503 412,135.5724 412,131 c 0,-4.5724 -3.54156,-12.32503 -7.17949,-15.7162 -8.26309,-7.70262 -23.62399,-5.94688 -30.13192,3.44406 C 372.29222,122.18582 372,123.51968 372,131 c 0,7.47693 0.29283,8.81506 2.68422,12.26584 5.10143,7.36135 14.64024,10.29507 23.41158,7.20036 z"
     style="fill:#000000" />
</svg>
