<?xml version="1.0" encoding="UTF-8" standalone="no"?>
<svg
   xmlns:dc="http://purl.org/dc/elements/1.1/"
   xmlns:cc="http://creativecommons.org/ns#"
   xmlns:rdf="http://www.w3.org/1999/02/22-rdf-syntax-ns#"
   xmlns:svg="http://www.w3.org/2000/svg"
   xmlns="http://www.w3.org/2000/svg"
   xmlns:sodipodi="http://sodipodi.sourceforge.net/DTD/sodipodi-0.dtd"
   xmlns:inkscape="http://www.inkscape.org/namespaces/inkscape"
   viewBox="0 0 281.79141 246.21397"
   height="246.21397"
   width="281.79141"
   id="svg127"
   version="1.1"
   sodipodi:docname="INPUTN.svg"
   inkscape:version="0.92.3 (2405546, 2018-03-11)">
  <sodipodi:namedview
     pagecolor="#ffffff"
     bordercolor="#666666"
     borderopacity="1"
     objecttolerance="10"
     gridtolerance="10"
     guidetolerance="10"
     inkscape:pageopacity="0"
     inkscape:pageshadow="2"
     inkscape:window-width="1920"
     inkscape:window-height="1017"
     id="namedview4553"
     showgrid="false"
     fit-margin-top="0"
     fit-margin-left="0"
     fit-margin-right="0"
     fit-margin-bottom="0"
     inkscape:zoom="2.9215292"
     inkscape:cx="265.91649"
     inkscape:cy="112.82129"
     inkscape:window-x="-8"
     inkscape:window-y="-8"
     inkscape:window-maximized="1"
     inkscape:current-layer="svg127" />
  <metadata
     id="metadata133">
    <rdf:RDF>
      <cc:Work
         rdf:about="">
        <dc:format>image/svg+xml</dc:format>
        <dc:type
           rdf:resource="http://purl.org/dc/dcmitype/StillImage" />
        <dc:title></dc:title>
      </cc:Work>
    </rdf:RDF>
  </metadata>
  <defs
     id="defs131" />
  <path
     id="path139"
     d="m 4.8336001e-5,61.799059 c 0,-44.782721 0.283877323999,-59.585722 1.160063963999,-60.49207 1.6846547,-1.7426516 234.7750577,-1.7426516 236.4597077,0 0.87252,0.902537 1.16007,14.078886 1.16007,53.154988 0,49.400363 0.0833,51.879343 1.69176,50.416513 3.00452,-2.73229 9.85839,-5.829751 15.13049,-6.837901 4.41543,-0.84434 5.80753,-0.68891 9.86838,1.10183 2.60028,1.146661 6.3967,3.745281 8.4365,5.774701 3.73753,3.71854 6.73034,9.45552 6.73034,12.27206 0,1.32823 -0.96516,-3.72126 -0.96516,-3.72126 0,0 2.09002,5.02173 2.09002,6.98012 0,1.95807 0.0292,0.45381 0.0292,0.45381 l -0.005,4.28873 -0.90231,5.66627 c -1.11482,7.00073 -8.72943,13.10335 -14.89183,15.93622 -4.58467,2.10758 -5.7617,2.26536 -10.35173,1.38764 -5.30553,-1.01455 -12.15718,-4.10648 -15.16878,-6.84522 -1.60857,-1.46283 -1.69176,1.01615 -1.69176,50.41651 0,39.0761 -0.28756,52.25245 -1.16006,53.15499 -1.68466,1.74265 -234.7750635,1.74265 -236.4597181,0 C 0.28409968,244.00087 0,229.30875 0,184.91492 v -58.79207 m 232.01285,-3.01586 V 7.106989 H 119.38997 6.7670885 v 116.000001 116 H 119.38997 232.01285 Z m 31.99437,19.4662 c 2.31142,-0.84359 5.23683,-2.53109 6.50092,-3.75 3.51685,-3.39117 6.94055,-11.1438 6.94055,-15.7162 0,-4.5724 -3.4237,-12.32503 -6.94055,-15.7162 -7.9881,-7.702621 -22.83778,-5.94688 -29.12914,3.44406 -2.31662,3.45796 -2.59911,4.79182 -2.59911,12.27214 0,7.47693 0.28308,8.81506 2.59489,12.26584 4.93165,7.36135 14.15301,10.29507 22.63244,7.20036 z"
     style="fill:#000000;stroke-width:0.98321921"
     inkscape:connector-curvature="0"
     sodipodi:nodetypes="cccscsscscsccsscsssssccccccccccscsssscs" />
  <path
     id="path8237"
     d="m 4.97e-5,61.799059 c 0,-44.782721 0.2803488,-59.585722 1.160064,-60.49207 1.6820931,-1.742652 234.7679663,-1.742652 236.4597163,0 1.31618,11.981981 1.16006,35.115315 1.16006,60.49207 v 59.292071 0 0 5.03172 0 58.79207 c 0,44.39383 -0.29002,59.08595 -1.16006,59.99207 -1.69175,1.74265 -234.7776232,1.74265 -236.4597163,0 C 0.2803985,244.00087 4.97e-5,229.30875 4.97e-5,184.91492 V 126.12285 M 232.01285,123.10699 V 7.106989 H 119.38997 6.7670902 v 116.000001 116 H 119.38997 232.01285 Z"
     style="fill:#000000;stroke-width:0.98321921"
     inkscape:connector-curvature="0"
     sodipodi:nodetypes="cccscccccsssscccccccccc" />
</svg>
