<?xml version="1.0" encoding="UTF-8" standalone="no"?>
<svg
   xmlns:dc="http://purl.org/dc/elements/1.1/"
   xmlns:cc="http://creativecommons.org/ns#"
   xmlns:rdf="http://www.w3.org/1999/02/22-rdf-syntax-ns#"
   xmlns:svg="http://www.w3.org/2000/svg"
   xmlns="http://www.w3.org/2000/svg"
   xmlns:sodipodi="http://sodipodi.sourceforge.net/DTD/sodipodi-0.dtd"
   xmlns:inkscape="http://www.inkscape.org/namespaces/inkscape"
   viewBox="0 0 292.52951 246.21397"
   height="246.21397"
   width="292.52951"
   id="svg127"
   version="1.1"
   sodipodi:docname="INPUTN.svg"
   inkscape:version="0.92.3 (2405546, 2018-03-11)">
  <sodipodi:namedview
     pagecolor="#ffffff"
     bordercolor="#666666"
     borderopacity="1"
     objecttolerance="10"
     gridtolerance="10"
     guidetolerance="10"
     inkscape:pageopacity="0"
     inkscape:pageshadow="2"
     inkscape:window-width="1920"
     inkscape:window-height="1017"
     id="namedview4553"
     showgrid="false"
     fit-margin-top="0"
     fit-margin-left="0"
     fit-margin-right="0"
     fit-margin-bottom="0"
     inkscape:zoom="1.4607646"
     inkscape:cx="96.3809"
     inkscape:cy="56.915671"
     inkscape:window-x="-8"
     inkscape:window-y="-8"
     inkscape:window-maximized="1"
     inkscape:current-layer="svg127" />
  <metadata
     id="metadata133">
    <rdf:RDF>
      <cc:Work
         rdf:about="">
        <dc:format>image/svg+xml</dc:format>
        <dc:type
           rdf:resource="http://purl.org/dc/dcmitype/StillImage" />
        <dc:title></dc:title>
      </cc:Work>
    </rdf:RDF>
  </metadata>
  <defs
     id="defs131" />
  <path
     id="path139"
     d="m 5e-5,61.799059 c 0,-44.782721 0.29365,-59.5857223 1.2,-60.4920703 1.74265,-1.7426516 242.85735,-1.7426516 244.6,0 0.90254,0.902537 1.2,14.0788863 1.2,53.1549883 0,49.400363 0.0861,51.879343 1.75,50.416513 3.10795,-2.73229 10.19777,-5.829751 15.65136,-6.837901 4.56744,-0.84434 6.00746,-0.68891 10.20811,1.10183 2.68979,1.146661 6.61691,3.745281 8.72693,5.774701 3.8662,3.71854 8.74702,11.63382 8.74702,14.45036 0,1.32823 -0.0908,-0.42356 -0.0908,-0.42356 0,0 0.53683,1.38084 0.53683,3.33923 0,1.95807 -0.49799,3.72429 -0.49799,3.72429 l 0.21178,-0.66559 -1.68973,5.515 c -2.07848,6.78381 -9.02995,13.10335 -15.40449,15.93622 -4.7425,2.10758 -5.96005,2.26536 -10.7081,1.38764 -5.48818,-1.01455 -12.57569,-4.10648 -15.69097,-6.84522 -1.66395,-1.46283 -1.75,1.01615 -1.75,50.41651 0,39.0761 -0.29746,52.25245 -1.2,53.15499 -1.74265,1.74265 -242.85735,1.74265 -244.6,0 C 0.29388,244.00087 0,229.30875 0,184.91492 v -58.79207 m 240.00005,-3.01586 V 7.1069887 h -116.5 -116.5 v 116.0000013 116 h 116.5 116.5 z m 33.0958,19.4662 c 2.39099,-0.84359 5.41711,-2.53109 6.72471,-3.75 3.63793,-3.39117 7.17949,-11.1438 7.17949,-15.7162 0,-4.5724 -3.54156,-12.32503 -7.17949,-15.7162 -8.26309,-7.702621 -23.62399,-5.94688 -30.13192,3.44406 -2.39637,3.45796 -2.68859,4.79182 -2.68859,12.27214 0,7.47693 0.29283,8.81506 2.68422,12.26584 5.10143,7.36135 14.64024,10.29507 23.41158,7.20036 z"
     style="fill:#000000"
     inkscape:connector-curvature="0"
     sodipodi:nodetypes="cccscsscscsccsscsssssccccccccccscsssscs" />
</svg>
