<?xml version="1.0" encoding="UTF-8" standalone="no"?>
<svg
   xmlns:dc="http://purl.org/dc/elements/1.1/"
   xmlns:cc="http://creativecommons.org/ns#"
   xmlns:rdf="http://www.w3.org/1999/02/22-rdf-syntax-ns#"
   xmlns:svg="http://www.w3.org/2000/svg"
   xmlns="http://www.w3.org/2000/svg"
   xmlns:sodipodi="http://sodipodi.sourceforge.net/DTD/sodipodi-0.dtd"
   xmlns:inkscape="http://www.inkscape.org/namespaces/inkscape"
   viewBox="0 -256 1850 1850"
   id="svg3025"
   version="1.1"
   inkscape:version="0.92.3 (2405546, 2018-03-11)"
   width="62.063324"
   height="18.301773"
   sodipodi:docname="move.svg">
  <metadata
     id="metadata3035">
    <rdf:RDF>
      <cc:Work
         rdf:about="">
        <dc:format>image/svg+xml</dc:format>
        <dc:type
           rdf:resource="http://purl.org/dc/dcmitype/StillImage" />
        <dc:title></dc:title>
      </cc:Work>
    </rdf:RDF>
  </metadata>
  <defs
     id="defs3033" />
  <sodipodi:namedview
     pagecolor="#ffffff"
     bordercolor="#666666"
     borderopacity="1"
     objecttolerance="10"
     gridtolerance="10"
     guidetolerance="10"
     inkscape:pageopacity="0"
     inkscape:pageshadow="2"
     inkscape:window-width="518"
     inkscape:window-height="405"
     id="namedview3031"
     showgrid="false"
     inkscape:zoom="0.13169643"
     inkscape:cx="896"
     inkscape:cy="896"
     inkscape:window-x="52"
     inkscape:window-y="52"
     inkscape:window-maximized="0"
     inkscape:current-layer="svg3025" />
  <g
     transform="matrix(1,0,0,-1,37.966102,1305.4576)"
     id="g3027">
    <path
       d="m 1792,640 q 0,-26 -19,-45 L 1517,339 q -19,-19 -45,-19 -26,0 -45,19 -19,19 -19,45 V 512 H 1024 V 128 h 128 q 26,0 45,-19 19,-19 19,-45 0,-26 -19,-45 L 941,-237 q -19,-19 -45,-19 -26,0 -45,19 L 595,19 q -19,19 -19,45 0,26 19,45 19,19 45,19 H 768 V 512 H 384 V 384 q 0,-26 -19,-45 -19,-19 -45,-19 -26,0 -45,19 L 19,595 q -19,19 -19,45 0,26 19,45 l 256,256 q 19,19 45,19 26,0 45,-19 19,-19 19,-45 V 768 h 384 v 384 H 640 q -26,0 -45,19 -19,19 -19,45 0,26 19,45 l 256,256 q 19,19 45,19 26,0 45,-19 l 256,-256 q 19,-19 19,-45 0,-26 -19,-45 -19,-19 -45,-19 H 1024 V 768 h 384 v 128 q 0,26 19,45 19,19 45,19 26,0 45,-19 l 256,-256 q 19,-19 19,-45 z"
       id="path3029"
       inkscape:connector-curvature="0"
       style="fill:currentColor" />
  </g>
</svg>
