<?xml version="1.0" encoding="UTF-8" standalone="no"?>
<svg
   xmlns:dc="http://purl.org/dc/elements/1.1/"
   xmlns:cc="http://creativecommons.org/ns#"
   xmlns:rdf="http://www.w3.org/1999/02/22-rdf-syntax-ns#"
   xmlns:svg="http://www.w3.org/2000/svg"
   xmlns="http://www.w3.org/2000/svg"
   xmlns:sodipodi="http://sodipodi.sourceforge.net/DTD/sodipodi-0.dtd"
   xmlns:inkscape="http://www.inkscape.org/namespaces/inkscape"
   viewBox="0 0 354.33243 250.89375"
   height="250.89375"
   width="354.33243"
   id="svg8145"
   version="1.1"
   sodipodi:docname="NAND.svg"
   inkscape:version="0.92.3 (2405546, 2018-03-11)">
  <sodipodi:namedview
     pagecolor="#ffffff"
     bordercolor="#666666"
     borderopacity="1"
     objecttolerance="10"
     gridtolerance="10"
     guidetolerance="10"
     inkscape:pageopacity="0"
     inkscape:pageshadow="2"
     inkscape:window-width="1920"
     inkscape:window-height="1017"
     id="namedview4541"
     showgrid="false"
     fit-margin-top="0"
     fit-margin-left="0"
     fit-margin-right="0"
     fit-margin-bottom="0"
     inkscape:zoom="2.0741799"
     inkscape:cx="-36.524173"
     inkscape:cy="124.15224"
     inkscape:window-x="-8"
     inkscape:window-y="-8"
     inkscape:window-maximized="1"
     inkscape:current-layer="svg8145" />
  <metadata
     id="metadata8151">
    <rdf:RDF>
      <cc:Work
         rdf:about="">
        <dc:format>image/svg+xml</dc:format>
        <dc:type
           rdf:resource="http://purl.org/dc/dcmitype/StillImage" />
        <dc:title></dc:title>
      </cc:Work>
    </rdf:RDF>
  </metadata>
  <defs
     id="defs8149" />
  <path
     id="path8155"
     d="M 0,33.039664 C 0,5.0840256 0.118681,3.0978693 1.884634,1.4997033 3.639516,-0.08844262 10.43821,-0.18045742 100.63463,0.16320428 c 108.26996,0.4125244 107.60404,0.3733112 126.71868,7.46191332 34.74412,12.8847394 62.34331,40.3659124 75.67927,75.3556694 2.17834,5.715342 4.45213,13.096702 5.05286,16.403022 0.60074,3.306321 1.26742,6.585131 1.48152,7.286241 0.26673,0.87347 2.04878,0.18743 5.66115,-2.17938 12.99496,-8.514261 30.29719,-3.70114 36.41378,10.12955 1.29696,2.93266 2.35811,5.9855 2.35811,6.78409 0,1.21655 0,0 0,0 0,0 0.33242,1.42135 0.33242,3.35179 0,1.93044 -0.33233,4.63019 -0.33233,4.63019 0,0 0,-1.21654 0,0 0,3.64423 -4.95718,12.20648 -8.86783,15.31688 -8.64324,6.87455 -19.63334,7.66724 -29.93871,2.1594 -5.90737,-3.15727 -5.58932,-3.4034 -7.14974,5.53273 -2.51498,14.40258 -14.60594,38.32028 -27.04839,53.50569 -19.07693,23.2825 -42.80757,37.08243 -73.9166,42.98427 -10.13268,1.92232 -14.65167,2.007 -107.17374,2.00849 -92.310783,10e-4 -96.668418,-0.0796 -98.250002,-1.82719 C 0.193306,247.45142 0,243.77339 0,217.57718 v -29.66063 m 0,-5.0425 v 5.0425 m 0,0 v 0 m 0,-5.0425 v 0 M 0,125.3953 V 67.916544 M 205.63992,237.8799 c 29.72372,-6.07554 50.63731,-18.27981 67.66196,-39.4846 21.79976,-27.15237 31.05355,-62.08695 24.67174,-93.13992 C 290.99435,71.295243 269.77309,41.670571 241.5,26.41877 226.26419,18.199872 217.34436,15.144819 202,12.889963 189.33067,11.028204 183.03909,10.905803 99.75,10.900718 L 11,10.895318 v 114.500002 114.5 h 92.38992 c 88.69705,0 92.78403,-0.0806 102.25,-2.0154 z m 129.19704,-92.42708 c 6.18258,-2.18134 10.20998,-5.58671 12.28836,-10.39043 3.95109,-9.13206 1.36673,-20.5334 -5.74183,-25.33112 -7.92696,-5.35007 -15.34787,-5.89466 -23.56741,-1.72952 -6.07629,3.07907 -6.81608,4.94392 -6.81608,17.1818 0,5.96378 0.42845,11.6438 0.95212,12.62228 1.4385,2.68788 7.91821,7.30186 11.43297,8.14104 4.84542,1.15688 7.04112,1.06216 11.45187,-0.49405 z"
     style="fill:#000000"
     inkscape:connector-curvature="0"
     sodipodi:nodetypes="cssssccssscscssssssccsccccccccccssssscccscccssscccc" />
</svg>
