<?xml version="1.0" encoding="UTF-8" standalone="no"?>
<svg
   xmlns:dc="http://purl.org/dc/elements/1.1/"
   xmlns:cc="http://creativecommons.org/ns#"
   xmlns:rdf="http://www.w3.org/1999/02/22-rdf-syntax-ns#"
   xmlns:svg="http://www.w3.org/2000/svg"
   xmlns="http://www.w3.org/2000/svg"
   viewBox="0 0 495 263"
   height="263"
   width="495"
   id="svg8145"
   version="1.1">
  <metadata
     id="metadata8151">
    <rdf:RDF>
      <cc:Work
         rdf:about="">
        <dc:format>image/svg+xml</dc:format>
        <dc:type
           rdf:resource="http://purl.org/dc/dcmitype/StillImage" />
        <dc:title></dc:title>
      </cc:Work>
    </rdf:RDF>
  </metadata>
  <defs
     id="defs8149" />
  <path
     id="path8155"
     d="M 92.654988,255.17126 C 91.193306,253.55612 91,249.87809 91,223.68188 V 194.02125 L 47.75,193.76062 C 5.2535409,193.50454 4.5,193.46515 4.5,191.5 c 0,-1.96515 0.7535409,-2.00454 43.25,-2.26062 L 91,188.97875 V 131.5 74.021245 L 47.75,73.760623 C 5.2535409,73.504541 4.5,73.465154 4.5,71.5 4.5,69.534846 5.2535409,69.495459 47.75,69.239377 L 91,68.978755 V 39.144365 C 91,11.188727 91.118681,9.2025707 92.884634,7.6044047 94.639516,6.0162588 101.43821,5.924244 191.63463,6.2679057 c 108.26996,0.4125244 107.60404,0.3733112 126.71868,7.4619133 34.74412,12.884739 62.34331,40.365912 75.67927,75.355669 2.17834,5.715342 4.45213,13.096702 5.05286,16.403022 0.60074,3.30632 1.26742,6.58513 1.48152,7.28624 0.26673,0.87347 2.04878,0.18743 5.66115,-2.17938 12.99496,-8.51426 30.29719,-3.70114 36.41378,10.12955 1.29696,2.93266 2.35811,5.9855 2.35811,6.78409 0,1.21655 3.52674,1.49568 21.75,1.72149 20.9935,0.26013 21.75,0.33906 21.75,2.2695 0,1.93044 -0.7565,2.00937 -21.75,2.2695 -18.22326,0.22581 -21.75,0.50494 -21.75,1.72149 0,3.64423 -4.95718,12.20648 -8.86783,15.31688 -8.64324,6.87455 -19.63334,7.66724 -29.93871,2.1594 -5.90737,-3.15727 -5.58932,-3.4034 -7.14974,5.53273 -2.51498,14.40258 -14.60594,38.32028 -27.04839,53.50569 -19.07693,23.2825 -42.80757,37.08243 -73.9166,42.98427 -10.13268,1.92232 -14.65167,2.007 -107.17374,2.00849 -92.310783,0.001 -96.668418,-0.0796 -98.250002,-1.82719 z M 296.63992,243.9846 c 29.72372,-6.07554 50.63731,-18.27981 67.66196,-39.4846 21.79976,-27.15237 31.05355,-62.08695 24.67174,-93.13992 C 381.99435,77.399944 360.77309,47.775272 332.5,32.523471 317.26419,24.304573 308.34436,21.24952 293,18.994664 280.33067,17.132905 274.03909,17.010504 190.75,17.005419 L 102,17 V 131.5 246 h 92.38992 c 88.69705,0 92.78403,-0.0806 102.25,-2.0154 z m 129.19704,-92.42708 c 6.18258,-2.18134 10.20998,-5.58671 12.28836,-10.39043 3.95109,-9.13206 1.36673,-20.5334 -5.74183,-25.33112 -7.92696,-5.35007 -15.34787,-5.89466 -23.56741,-1.72952 -6.07629,3.07907 -6.81608,4.94392 -6.81608,17.1818 0,5.96378 0.42845,11.6438 0.95212,12.62228 1.4385,2.68788 7.91821,7.30186 11.43297,8.14104 4.84542,1.15688 7.04112,1.06216 11.45187,-0.49405 z"
     style="fill:#000000" />
</svg>
