<?xml version="1.0" encoding="UTF-8" standalone="no"?>
<!-- Created with Inkscape (http://www.inkscape.org/) -->

<svg
   xmlns:dc="http://purl.org/dc/elements/1.1/"
   xmlns:cc="http://creativecommons.org/ns#"
   xmlns:rdf="http://www.w3.org/1999/02/22-rdf-syntax-ns#"
   xmlns:svg="http://www.w3.org/2000/svg"
   xmlns="http://www.w3.org/2000/svg"
   xmlns:sodipodi="http://sodipodi.sourceforge.net/DTD/sodipodi-0.dtd"
   xmlns:inkscape="http://www.inkscape.org/namespaces/inkscape"
   version="1.1"
   id="svg2"
   width="72.978531"
   height="58.131557"
   viewBox="0 0 72.978531 58.131557"
   sodipodi:docname="NOR.svg"
   inkscape:version="0.92.3 (2405546, 2018-03-11)">
  <metadata
     id="metadata8">
    <rdf:RDF>
      <cc:Work
         rdf:about="">
        <dc:format>image/svg+xml</dc:format>
        <dc:type
           rdf:resource="http://purl.org/dc/dcmitype/StillImage" />
        <dc:title></dc:title>
      </cc:Work>
    </rdf:RDF>
  </metadata>
  <defs
     id="defs6" />
  <sodipodi:namedview
     pagecolor="#ffffff"
     bordercolor="#666666"
     borderopacity="1"
     objecttolerance="10"
     gridtolerance="10"
     guidetolerance="10"
     inkscape:pageopacity="0"
     inkscape:pageshadow="2"
     inkscape:window-width="1920"
     inkscape:window-height="1017"
     id="namedview4"
     showgrid="false"
     inkscape:zoom="5.6568543"
     inkscape:cx="77.979485"
     inkscape:cy="12.440923"
     inkscape:window-x="-8"
     inkscape:window-y="-8"
     inkscape:window-maximized="1"
     inkscape:current-layer="svg2"
     fit-margin-top="0"
     fit-margin-left="0"
     fit-margin-right="0"
     fit-margin-bottom="0" />
  <path
     style="fill:#000000;stroke-width:0.21847129"
     d="M 6.3577204,11.573346 C 5.0402744,8.5612293 2.6207444,4.6507923 0.9175594,2.7809773 c -1.023974,-1.1241525 -1.171361,-1.78786282 -0.53972,-2.43044242 0.375272,-0.381765 1.110347,-0.4006739 11.4877066,-0.2955125 8.595444,0.087109 11.735035,0.199782 13.971591,0.5014389 C 37.266693,2.0980289 49.179771,8.9851823 56.5622,18.319142 c 2.040927,2.580442 5.233383,7.220383 5.79752,8.42616 0.23015,0.491925 0.353559,0.59341 0.422501,0.347449 0.19815,-0.706954 1.498248,-2.277805 2.455388,-2.966739 2.547213,-1.833449 5.973521,-0.672065 7.197765,2.439753 0.267247,0.679301 0.485905,1.386442 0.485905,1.57142 0,0.281793 0,0 0,0 0,0 0.05725,0.438232 0.05725,0.885382 0,0.415905 -0.03645,0.674129 -0.03645,0.674129 l -0.0208,0.289376 c -0.06052,0.841953 -1.021464,2.827426 -1.827285,3.547895 -1.709346,1.528305 -3.801973,1.743557 -5.829631,0.599648 -0.8972,-0.506158 -2.261573,-2.084534 -2.482142,-2.871473 -0.06894,-0.245961 -0.192351,-0.144483 -0.422501,0.347449 -0.533913,1.141179 -3.678676,5.739336 -5.638425,8.244306 -3.327589,4.253343 -9.389714,9.37379 -14.522965,12.266987 -5.171328,2.914657 -9.643514,4.414866 -16.527041,5.544045 -2.57458,0.422337 -3.896693,0.466629 -13.92846,0.466629 -10.4761806,0 -11.1025656,-0.02321 -11.4248906,-0.423595 v 9e-6 c -0.534279,-0.66365 -0.406952,-1.243203 0.479007,-2.180279 1.931524,-2.042967 6.082596,-9.141168 6.700612,-11.466051 l 0.153695,-0.433464 0.08984,-0.273438 0.110996,-0.35276 0.156829,-0.536561 0.176777,-0.486136 0.151517,-0.469136 C 8.9155304,39.983084 9.8234064,34.943196 10.061379,31.938834 10.420653,27.403049 9.7130284,21.068159 8.4011964,17.076361 L 7.9640644,15.746205 M 25.563048,55.101619 c 6.192494,-1.010788 11.62984,-2.855001 15.831431,-5.369614 8.077854,-4.834537 14.638696,-11.529336 19.170161,-19.561583 l 0.581166,-1.030146 -0.58321,-1.111893 C 60.241831,27.416841 59.304749,25.887742 58.480192,24.630385 51.885313,14.573942 41.732914,7.0081413 31.017148,4.1642923 26.296433,2.9114653 21.571221,2.5218947 11.964933,2.5935306 l -8.3086476,0.061962 1.628178,2.432146 C 10.4569,12.814139 13.062389,22.781317 12.334622,32.0577 11.698656,40.163938 9.3972624,47.145012 5.4035834,53.082379 c -0.831364,1.235985 -1.511576,2.304392 -1.511576,2.374238 0,0.06986 4.211596,0.126988 9.3591046,0.126988 8.39685,0 9.662696,-0.04957 12.311936,-0.481988 z m 43.54879,-21.423481 c 1.25856,-0.591129 1.982038,-1.309894 2.39286,-2.377283 1.362312,-3.539487 -0.998884,-7.353933 -4.245683,-6.858785 -2.005212,0.305798 -3.102314,1.384213 -3.608639,3.547152 -0.828578,3.539567 2.548373,7.057154 5.461462,5.688916 z"
     id="path12"
     inkscape:connector-curvature="0"
     sodipodi:nodetypes="cscsssccccscscscssccsssccscccccccsscscccsccssscsscssccscc" />
</svg>
