<?xml version="1.0" encoding="UTF-8" standalone="no"?>
<!-- Created with Inkscape (http://www.inkscape.org/) -->

<svg
   xmlns:dc="http://purl.org/dc/elements/1.1/"
   xmlns:cc="http://creativecommons.org/ns#"
   xmlns:rdf="http://www.w3.org/1999/02/22-rdf-syntax-ns#"
   xmlns:svg="http://www.w3.org/2000/svg"
   xmlns="http://www.w3.org/2000/svg"
   xmlns:sodipodi="http://sodipodi.sourceforge.net/DTD/sodipodi-0.dtd"
   xmlns:inkscape="http://www.inkscape.org/namespaces/inkscape"
   version="1.1"
   id="svg2"
   width="112"
   height="80"
   viewBox="0 0 112 80"
   sodipodi:docname="NOR.svg"
   inkscape:version="0.92.3 (2405546, 2018-03-11)">
  <metadata
     id="metadata8">
    <rdf:RDF>
      <cc:Work
         rdf:about="">
        <dc:format>image/svg+xml</dc:format>
        <dc:type
           rdf:resource="http://purl.org/dc/dcmitype/StillImage" />
        <dc:title></dc:title>
      </cc:Work>
    </rdf:RDF>
  </metadata>
  <defs
     id="defs6" />
  <sodipodi:namedview
     pagecolor="#ffffff"
     bordercolor="#666666"
     borderopacity="1"
     objecttolerance="10"
     gridtolerance="10"
     guidetolerance="10"
     inkscape:pageopacity="0"
     inkscape:pageshadow="2"
     inkscape:window-width="1280"
     inkscape:window-height="961"
     id="namedview4"
     showgrid="false"
     inkscape:zoom="4.17193"
     inkscape:cx="61.775581"
     inkscape:cy="36.036762"
     inkscape:window-x="0"
     inkscape:window-y="0"
     inkscape:window-maximized="1"
     inkscape:current-layer="svg2" />
  <path
     style="fill:#000000;stroke-width:0.21847129"
     d="m 22.98044,65.090046 c -0.534279,-0.66365 -0.406952,-1.243203 0.479007,-2.180279 1.931524,-2.042967 6.074783,-9.141168 6.692799,-11.466051 l 0.13807,-0.519402 -12.737434,-0.05968 C 4.970511,50.805671 4.8154416,50.799309 4.8154416,50.341681 c 0,-0.457708 0.1550588,-0.463983 12.9279924,-0.522916 l 12.927989,-0.05966 0.328294,-0.866884 C 31.578032,47.365158 32.485908,42.32527 32.723881,39.320908 33.083155,34.785123 32.37553,28.450233 31.063698,24.458435 L 30.626566,23.128279 17.721003,23.068633 C 4.9704983,23.009715 4.8154416,23.003438 4.8154416,22.545731 c 0,-0.457019 0.1717146,-0.464827 12.7355894,-0.579083 L 30.286623,21.850831 29.020222,18.95542 C 27.702776,15.943303 25.283246,12.032866 23.580061,10.163051 22.556087,9.0388985 22.4087,8.3751882 23.040341,7.7326086 c 0.375272,-0.381765 1.110347,-0.4006739 11.487707,-0.2955125 8.595444,0.087109 11.735035,0.199782 13.971591,0.5014389 11.429556,1.5415676 23.342634,8.428721 30.725063,17.762681 2.040927,2.580442 5.233383,7.220383 5.79752,8.42616 0.23015,0.491925 0.353559,0.59341 0.422501,0.347449 0.19815,-0.706954 1.498248,-2.277805 2.455388,-2.966739 2.547213,-1.833449 5.973521,-0.672065 7.197765,2.439753 0.267247,0.679301 0.485905,1.386442 0.485905,1.57142 0,0.281793 0.726711,0.346448 4.481739,0.398754 4.32588,0.06025 4.48176,0.07854 4.48176,0.52569 0,0.447155 -0.15588,0.465436 -4.48176,0.525692 -3.755028,0.0523 -4.481739,0.116968 -4.481739,0.398751 0,0.844125 -1.021464,2.827426 -1.827285,3.547895 -1.709346,1.528305 -3.801973,1.743557 -5.829631,0.599648 -0.8972,-0.506158 -2.261573,-2.084534 -2.482142,-2.871473 -0.06894,-0.245961 -0.192351,-0.144483 -0.422501,0.347449 -0.533913,1.141179 -3.678676,5.739336 -5.638425,8.244306 -3.327589,4.253343 -9.389714,9.37379 -14.522965,12.266987 -5.171328,2.914657 -9.643514,4.414866 -16.527041,5.544045 -2.57458,0.422337 -3.896693,0.466629 -13.92846,0.466629 -10.476181,0 -11.102566,-0.02321 -11.424891,-0.423595 z m 25.24511,-2.606353 c 6.192494,-1.010788 11.62984,-2.855001 15.831431,-5.369614 8.077854,-4.834537 14.638696,-11.529336 19.170161,-19.561583 l 0.581166,-1.030146 -0.58321,-1.111893 C 82.904333,34.798915 81.967251,33.269816 81.142694,32.012459 74.547815,21.956016 64.395416,14.390215 53.67965,11.546366 48.958935,10.293539 44.233723,9.9039684 34.627435,9.9756043 l -8.308648,0.061962 1.628178,2.432146 c 5.172437,7.7265 7.777926,17.693678 7.050159,26.970061 -0.635966,8.106238 -2.93736,15.087312 -6.931039,21.024679 -0.831364,1.235985 -1.511576,2.304392 -1.511576,2.374238 0,0.06986 4.211596,0.126988 9.359105,0.126988 8.39685,0 9.662696,-0.04957 12.311936,-0.481988 z M 91.77434,41.060212 c 1.25856,-0.591129 1.982038,-1.309894 2.39286,-2.377283 1.362312,-3.539487 -0.998884,-7.353933 -4.245683,-6.858785 -2.005212,0.305798 -3.102314,1.384213 -3.608639,3.547152 -0.828578,3.539567 2.548373,7.057154 5.461462,5.688916 z"
     id="path12"
     inkscape:connector-curvature="0" />
</svg>
