<?xml version="1.0" encoding="UTF-8" standalone="no"?>
<svg
   xmlns:dc="http://purl.org/dc/elements/1.1/"
   xmlns:cc="http://creativecommons.org/ns#"
   xmlns:rdf="http://www.w3.org/1999/02/22-rdf-syntax-ns#"
   xmlns:svg="http://www.w3.org/2000/svg"
   xmlns="http://www.w3.org/2000/svg"
   xmlns:sodipodi="http://sodipodi.sourceforge.net/DTD/sodipodi-0.dtd"
   xmlns:inkscape="http://www.inkscape.org/namespaces/inkscape"
   viewBox="0 0 233.98534 250.70454"
   height="250.70454"
   width="233.98534"
   id="svg7981"
   version="1.1"
   sodipodi:docname="NOT.svg"
   inkscape:version="0.92.3 (2405546, 2018-03-11)">
  <sodipodi:namedview
     pagecolor="#ffffff"
     bordercolor="#666666"
     borderopacity="1"
     objecttolerance="10"
     gridtolerance="10"
     guidetolerance="10"
     inkscape:pageopacity="0"
     inkscape:pageshadow="2"
     inkscape:window-width="1920"
     inkscape:window-height="1017"
     id="namedview44"
     showgrid="false"
     fit-margin-top="0"
     fit-margin-left="0"
     fit-margin-right="0"
     fit-margin-bottom="0"
     inkscape:zoom="1.7946768"
     inkscape:cx="226.18791"
     inkscape:cy="172.53113"
     inkscape:window-x="-8"
     inkscape:window-y="-8"
     inkscape:window-maximized="1"
     inkscape:current-layer="svg7981" />
  <metadata
     id="metadata7987">
    <rdf:RDF>
      <cc:Work
         rdf:about="">
        <dc:format>image/svg+xml</dc:format>
        <dc:type
           rdf:resource="http://purl.org/dc/dcmitype/StillImage" />
        <dc:title></dc:title>
      </cc:Work>
    </rdf:RDF>
  </metadata>
  <defs
     id="defs7985" />
  <path
     id="path7991"
     d="M 0,63.008875 C 0,4.8001533 0.053387,3.126171 1.964959,1.3962222 3.120264,0.35068538 4.894292,-0.19768932 6.270369,0.06536448 7.557617,0.31143758 48.04467,26.916911 96.2416,59.18864 c 48.19693,32.271728 87.88449,58.67587 88.19459,58.67587 0.31009,0 0.56381,-0.58635 0.56381,-1.303 0,-2.48723 6.06283,-9.5286 10.76865,-12.5067 9.82163,-6.21566 22.55454,-4.91659 29.86808,3.04728 2.15289,2.34433 5.34567,6.71571 6.38881,9.97918 l 1.60063,5.00759 c 0.20992,1.26012 0.38463,2.45544 0.3561,2.46971 l -0.22875,2.62222 c -0.2819,1.80891 -1.05208,4.7073 -1.72798,6.46696 -1.2285,3.19829 -4.21154,7.6084 -6.33463,9.9204 -11.20506,12.20208 -34.73175,7.47014 -40.6829,-8.18257 -0.99235,-2.61009 -1.17938,-2.49178 -88.74533,56.14068 C 47.9997,223.84222 7.37402,250.44954 5.983391,250.65364 4.398358,250.88627 2.810428,250.31252 1.727487,249.11588 0.131471,247.3523 0,242.66653 0,187.54639 v -59.66063 m 92.86986,52.56591 c 44.68579,-29.92707 81.24688,-54.71629 81.24688,-55.08716 0,-0.57804 -161.94582,-109.5 -162.80525,-109.5 -0.17132,0 -0.31149,49.275 -0.31149,109.5 0,60.225 0.14017,109.5 0.31149,109.5 0.17132,0 36.87258,-24.48578 81.55837,-54.41284 z M 215.0958,145.33071 c 2.39099,-0.84359 5.41711,-2.53109 6.72471,-3.75 3.63793,-3.39117 7.17949,-11.1438 7.17949,-15.7162 0,-4.5724 -3.54156,-12.32503 -7.17949,-15.7162 -8.00867,-7.46547 -23.23478,-5.99381 -30.00771,2.90035 -3.48316,4.57406 -4.19462,7.25408 -2.33538,8.79711 0.83742,0.695 1.52258,2.27843 1.52258,3.51874 0,1.24031 -0.68516,2.82374 -1.52258,3.51874 -3.872,3.21347 5.83875,15.10631 13.90767,17.03283 4.89212,1.16803 7.04622,1.06036 11.71071,-0.58537 z"
     style="fill:#000000"
     inkscape:connector-curvature="0"
     sodipodi:nodetypes="cssssssssccccscscsscssssssscscscscss" />
</svg>
