<?xml version="1.0" encoding="UTF-8" standalone="no"?>
<svg
   xmlns:dc="http://purl.org/dc/elements/1.1/"
   xmlns:cc="http://creativecommons.org/ns#"
   xmlns:rdf="http://www.w3.org/1999/02/22-rdf-syntax-ns#"
   xmlns:svg="http://www.w3.org/2000/svg"
   xmlns="http://www.w3.org/2000/svg"
   viewBox="0 0 373 263"
   height="263"
   width="373"
   id="svg7981"
   version="1.1">
  <metadata
     id="metadata7987">
    <rdf:RDF>
      <cc:Work
         rdf:about="">
        <dc:format>image/svg+xml</dc:format>
        <dc:type
           rdf:resource="http://purl.org/dc/dcmitype/StillImage" />
        <dc:title></dc:title>
      </cc:Work>
    </rdf:RDF>
  </metadata>
  <defs
     id="defs7985" />
  <path
     id="path7991"
     d="M 93.727487,255.25137 C 92.131471,253.48779 92,248.80202 92,193.68188 V 134.02125 L 48.75,133.76062 C 6.2535409,133.50454 5.5,133.46515 5.5,131.5 c 0,-1.96515 0.7535409,-2.00454 43.25,-2.26062 L 92,128.97875 V 69.144365 C 92,10.935643 92.053387,9.2616607 93.964959,7.5317119 95.120264,6.4861751 96.894292,5.9378004 98.270369,6.2008542 99.557617,6.4469273 140.04467,33.052401 188.2416,65.32413 236.43853,97.595858 276.12609,124 276.43619,124 276.74628,124 277,123.41365 277,122.697 c 0,-2.48723 6.06283,-9.5286 10.76865,-12.5067 9.82163,-6.21566 22.55454,-4.91659 29.86808,3.04728 2.15289,2.34433 5.02786,6.83496 6.38881,9.97918 l 2.47446,5.71677 21.5,0.28323 c 20.73892,0.27321 21.5,0.35404 21.5,2.28324 0,1.9292 -0.76108,2.01003 -21.5,2.28324 l -21.5,0.28323 -2.47446,5.71677 c -1.36095,3.14422 -4.21154,7.6084 -6.33463,9.9204 -11.20506,12.20208 -34.73175,7.47014 -40.6829,-8.18257 -0.99235,-2.61009 -1.17938,-2.49178 -88.74533,56.14068 -48.26298,32.31596 -88.88866,58.92328 -90.279289,59.12738 -1.585033,0.23263 -3.172963,-0.34112 -4.255904,-1.53776 z M 184.86986,186.58716 C 229.55565,156.66009 266.11674,131.87087 266.11674,131.5 266.11674,130.92196 104.17092,22 103.31149,22 103.14017,22 103,71.275 103,131.5 c 0,60.225 0.14017,109.5 0.31149,109.5 0.17132,0 36.87258,-24.48578 81.55837,-54.41284 z M 307.0958,151.4662 c 2.39099,-0.84359 5.41711,-2.53109 6.72471,-3.75 C 317.45844,144.32503 321,136.5724 321,132 c 0,-4.5724 -3.54156,-12.32503 -7.17949,-15.7162 -8.00867,-7.46547 -23.23478,-5.99381 -30.00771,2.90035 -3.48316,4.57406 -4.19462,7.25408 -2.33538,8.79711 0.83742,0.695 1.52258,2.27843 1.52258,3.51874 0,1.24031 -0.68516,2.82374 -1.52258,3.51874 -3.872,3.21347 5.83875,15.10631 13.90767,17.03283 4.89212,1.16803 7.04622,1.06036 11.71071,-0.58537 z"
     style="fill:#000000" />
</svg>
