<?xml version="1.0" encoding="UTF-8" standalone="no"?>
<svg
   xmlns:dc="http://purl.org/dc/elements/1.1/"
   xmlns:cc="http://creativecommons.org/ns#"
   xmlns:rdf="http://www.w3.org/1999/02/22-rdf-syntax-ns#"
   xmlns:svg="http://www.w3.org/2000/svg"
   xmlns="http://www.w3.org/2000/svg"
   viewBox="0 0 510 273"
   height="273"
   width="510"
   id="svg7817"
   version="1.1">
  <metadata
     id="metadata7823">
    <rdf:RDF>
      <cc:Work
         rdf:about="">
        <dc:format>image/svg+xml</dc:format>
        <dc:type
           rdf:resource="http://purl.org/dc/dcmitype/StillImage" />
        <dc:title></dc:title>
      </cc:Work>
    </rdf:RDF>
  </metadata>
  <defs
     id="defs7821" />
  <path
     id="path7827"
     d="m 101.75,262.9199 c -2.881113,-1.67809 -2.014907,-5.79181 2.58847,-12.29291 6.87408,-9.70791 16.11352,-26.15819 21.55029,-38.36902 l 5.00541,-11.24203 -58.697083,-0.25797 C 14.252657,200.50331 13.5,200.47435 13.5,198.5 c 0,-1.97196 0.833333,-2.00701 59.440012,-2.5 l 59.440008,-0.5 2.70304,-9.08089 c 7.74725,-26.02694 7.77226,-67.13782 0.0579,-95.120506 L 132.43961,81.5 72.969805,81 C 14.333333,80.507006 13.5,80.471975 13.5,78.5 c 0,-1.974355 0.752657,-2.003308 58.697087,-2.257972 L 130.89417,75.984057 125.88876,64.742028 C 120.45199,52.5312 111.21255,36.080916 104.33847,26.373009 c -4.79713,-6.774732 -5.289646,-9.202231 -2.39799,-11.81914 1.81396,-1.641615 5.41606,-1.724648 55.25,-1.273586 60.06916,0.543703 71.85835,1.436708 94.56507,7.163086 48.62227,12.261991 90.82193,37.206074 123.80082,73.178269 10.28645,11.220092 22.78444,27.440232 27.99932,36.338072 l 3.52808,6.01976 44.70812,0.26026 C 495.74658,136.49561 496.5,136.5337 496.5,138.5 c 0,1.96632 -0.75343,2.00438 -44.73837,2.26029 l -44.73836,0.26028 -2.62038,5.23972 c -3.78263,7.56375 -18.23528,26.58823 -29.33126,38.60966 -31.88317,34.54236 -79.0809,62.26407 -122.60267,72.01101 -29.21683,6.54326 -37.05198,7.12236 -95.90806,7.08863 -34.17595,-0.0196 -53.68374,-0.39318 -54.8109,-1.04969 z m 121.56678,-11.93582 c 32.16309,-4.91825 53.78919,-11.43596 77.18322,-23.2616 35.55133,-17.97113 70.75346,-50.09279 92.53306,-84.43567 l 2.82041,-4.44732 -2.83033,-4.80024 C 379.36619,110.877 352.29966,82.786612 325.93128,64.409455 306.59601,50.93395 273.02946,36.160255 250.18442,31.070874 c -24.95815,-5.560133 -35.03864,-6.347502 -87.16019,-6.807922 -45.91898,-0.405629 -47.4239,-0.359431 -45.89402,1.408834 2.54644,2.94321 12.42473,21.171394 18.8398,34.764661 17.3032,36.664788 20.95803,87.705273 9.40906,131.399943 -3.73149,14.11783 -11.73894,32.28163 -22.6655,51.41361 L 117.1452,253 h 46.49418 c 41.59024,0 47.88467,-0.21263 59.6774,-2.01592 z"
     style="fill:#000000" />
</svg>
