<?xml version="1.0" encoding="UTF-8" standalone="no"?>
<svg
   xmlns:dc="http://purl.org/dc/elements/1.1/"
   xmlns:cc="http://creativecommons.org/ns#"
   xmlns:rdf="http://www.w3.org/1999/02/22-rdf-syntax-ns#"
   xmlns:svg="http://www.w3.org/2000/svg"
   xmlns="http://www.w3.org/2000/svg"
   xmlns:sodipodi="http://sodipodi.sourceforge.net/DTD/sodipodi-0.dtd"
   xmlns:inkscape="http://www.inkscape.org/namespaces/inkscape"
   viewBox="0 0 307.54828 250.92613"
   height="250.92613"
   width="307.54828"
   id="svg7817"
   version="1.1"
   sodipodi:docname="OR2.svg"
   inkscape:version="0.92.3 (2405546, 2018-03-11)">
  <sodipodi:namedview
     pagecolor="#ffffff"
     bordercolor="#666666"
     borderopacity="1"
     objecttolerance="10"
     gridtolerance="10"
     guidetolerance="10"
     inkscape:pageopacity="0"
     inkscape:pageshadow="2"
     inkscape:window-width="1920"
     inkscape:window-height="1017"
     id="namedview3860"
     showgrid="false"
     fit-margin-top="0"
     fit-margin-left="0"
     fit-margin-right="0"
     fit-margin-bottom="0"
     inkscape:zoom="0.71176471"
     inkscape:cx="1047.3793"
     inkscape:cy="-161.21492"
     inkscape:window-x="-8"
     inkscape:window-y="-8"
     inkscape:window-maximized="1"
     inkscape:current-layer="svg7817" />
  <metadata
     id="metadata7823">
    <rdf:RDF>
      <cc:Work
         rdf:about="">
        <dc:format>image/svg+xml</dc:format>
        <dc:type
           rdf:resource="http://purl.org/dc/dcmitype/StillImage" />
        <dc:title></dc:title>
      </cc:Work>
    </rdf:RDF>
  </metadata>
  <defs
     id="defs7821" />
  <path
     id="path7827"
     d="m 34.994987,173.37422 c 7.74725,-26.02694 7.77226,-67.13782 0.0579,-95.120508 l -2.70135,-9.798604 v 0 l -1.54544,-5.515943 v 0 L 25.800687,51.697136 C 20.363927,39.486304 11.124477,23.036024 4.2503971,13.328117 -0.54673286,6.5533855 -1.0392489,4.1258865 1.8524071,1.5089775 c 1.81396,-1.64161503 5.41606,-1.72464803 55.2499999,-1.27358603 60.069163,0.543703 71.858353,1.43670803 94.565073,7.16308603 48.62227,12.2619905 90.82193,37.2060735 123.80082,73.1782685 10.28645,11.220092 22.78444,27.440234 27.99932,36.338074 l 3.52808,6.01976 v 0 c 0,0 0.55259,0.55441 0.55259,2.52071 0,1.96632 -0.61309,2.52053 -0.61309,2.52053 v 0 l -2.62038,5.23972 c -3.78263,7.56375 -18.23528,26.58823 -29.33126,38.60966 -31.88317,34.54236 -79.0809,62.26407 -122.60267,72.01101 -29.21683,6.54326 -37.05198,7.12236 -95.908063,7.08863 -34.17595,-0.0196 -53.6837399,-0.39318 -54.8108999,-1.04969 -2.881113,-1.67809 -2.01490696,-5.79181 2.58847,-12.29291 6.8740799,-9.70791 16.7980299,-25.87587 21.5502899,-38.36902 l 4.33683,-11.40103 m 93.091193,50.12714 c 32.16309,-4.91825 53.78919,-11.43596 77.18322,-23.2616 35.55133,-17.97113 70.75346,-50.09279 92.53306,-84.43567 l 2.82041,-4.44732 -2.83033,-4.80024 C 279.27812,97.832108 252.21159,69.74172 225.84321,51.364563 206.50794,37.889058 172.94139,23.115363 150.09635,18.025982 125.1382,12.465849 115.05771,11.67848 62.936157,11.21806 c -45.91898,-0.405629 -47.4239,-0.359431 -45.89402,1.408834 2.54644,2.94321 12.42473,21.171394 18.8398,34.764661 17.3032,36.664788 20.95803,87.705275 9.40906,131.399945 -3.73149,14.11783 -11.73894,32.28163 -22.6655,51.41361 l -5.56837,9.75 h 46.49418 c 41.590243,0 47.884673,-0.21263 59.677403,-2.01592 z"
     style="fill:#000000"
     inkscape:connector-curvature="0"
     sodipodi:nodetypes="cccccccscssssccsccsssssssccssccssscssscssc" />
</svg>
