<?xml version="1.0" encoding="UTF-8" standalone="no"?>
<svg
   xmlns:dc="http://purl.org/dc/elements/1.1/"
   xmlns:cc="http://creativecommons.org/ns#"
   xmlns:rdf="http://www.w3.org/1999/02/22-rdf-syntax-ns#"
   xmlns:svg="http://www.w3.org/2000/svg"
   xmlns="http://www.w3.org/2000/svg"
   xmlns:sodipodi="http://sodipodi.sourceforge.net/DTD/sodipodi-0.dtd"
   xmlns:inkscape="http://www.inkscape.org/namespaces/inkscape"
   version="1.0"
   width="62.063324"
   height="18.301773"
   viewBox="0 0 145.65083 42.950784"
   preserveAspectRatio="xMidYMid meet"
   id="svg16"
   sodipodi:docname="play.svg"
   inkscape:version="0.92.3 (2405546, 2018-03-11)">
  <defs
     id="defs20" />
  <sodipodi:namedview
     pagecolor="#ffffff"
     bordercolor="#666666"
     borderopacity="1"
     objecttolerance="10"
     gridtolerance="10"
     guidetolerance="10"
     inkscape:pageopacity="0"
     inkscape:pageshadow="2"
     inkscape:window-width="1920"
     inkscape:window-height="1017"
     id="namedview18"
     showgrid="false"
     inkscape:zoom="13.25"
     inkscape:cx="44.06826"
     inkscape:cy="8.7064856"
     inkscape:window-x="-8"
     inkscape:window-y="-8"
     inkscape:window-maximized="1"
     inkscape:current-layer="svg16"
     viewbox-height="18"
     viewbox-width="62"
     scale-x="2.34681" />
  <metadata
     id="metadata10">
Created by potrace 1.15, written by Peter Selinger 2001-2017
<rdf:RDF>
  <cc:Work
     rdf:about="">
    <dc:format>image/svg+xml</dc:format>
    <dc:type
       rdf:resource="http://purl.org/dc/dcmitype/StillImage" />
    <dc:title></dc:title>
  </cc:Work>
</rdf:RDF>
</metadata>
  <g
     transform="matrix(0.1,0,0,-0.1,30.232858,69.709014)"
     id="g14"
     style="fill:#000000;stroke:none">
    <path
       d="m 267,693 c -13,-12 -8,-421 5,-429 17,-11 428,197 428,217 0,11 -62,48 -203,118 C 297,699 280,706 267,693 Z M 660,480 c 0,-3 -83,-47 -185,-98 L 290,290 v 190 190 l 185,-92 c 102,-51 185,-95 185,-98 z"
       id="path12"
       inkscape:connector-curvature="0" />
  </g>
  <path
     style="fill:#00ff66;stroke-width:0.0754717"
     d="m 25.275807,9.263212 c 0,-4.4 0.01813,-8 0.04029,-8 0.02216,0 1.949518,0.9441656 4.283019,2.0981459 6.199809,3.065976 11.21108,5.6748337 11.276271,5.8704043 0.03058,0.091737 -0.485274,0.3944203 -2.429769,1.4256988 -1.478557,0.784165 -13.049188,6.605751 -13.129189,6.605751 -0.02234,0 -0.04062,-3.6 -0.04062,-8 z"
     id="path40"
     inkscape:connector-curvature="0"
     transform="scale(2.34681)" />
</svg>
