<?xml version="1.0" encoding="UTF-8" standalone="no"?>
<!-- Created with Inkscape (http://www.inkscape.org/) -->

<svg
   xmlns:dc="http://purl.org/dc/elements/1.1/"
   xmlns:cc="http://creativecommons.org/ns#"
   xmlns:rdf="http://www.w3.org/1999/02/22-rdf-syntax-ns#"
   xmlns:svg="http://www.w3.org/2000/svg"
   xmlns="http://www.w3.org/2000/svg"
   xmlns:sodipodi="http://sodipodi.sourceforge.net/DTD/sodipodi-0.dtd"
   xmlns:inkscape="http://www.inkscape.org/namespaces/inkscape"
   width="166mm"
   height="166mm"
   viewBox="0 0 166 166"
   version="1.1"
   id="svg8"
   inkscape:version="0.92.3 (2405546, 2018-03-11)"
   sodipodi:docname="WLED.svg">
  <defs
     id="defs2" />
  <sodipodi:namedview
     id="base"
     pagecolor="#ffffff"
     bordercolor="#666666"
     borderopacity="1.0"
     inkscape:pageopacity="0.0"
     inkscape:pageshadow="2"
     inkscape:zoom="0.35"
     inkscape:cx="-188.25824"
     inkscape:cy="244.38721"
     inkscape:document-units="mm"
     inkscape:current-layer="layer1"
     showgrid="false"
     inkscape:window-width="1366"
     inkscape:window-height="683"
     inkscape:window-x="0"
     inkscape:window-y="0"
     inkscape:window-maximized="1"
     fit-margin-top="0"
     fit-margin-left="0"
     fit-margin-right="0"
     fit-margin-bottom="0" />
  <metadata
     id="metadata5">
    <rdf:RDF>
      <cc:Work
         rdf:about="">
        <dc:format>image/svg+xml</dc:format>
        <dc:type
           rdf:resource="http://purl.org/dc/dcmitype/StillImage" />
        <dc:title></dc:title>
      </cc:Work>
    </rdf:RDF>
  </metadata>
  <g
     inkscape:label="Livello 1"
     inkscape:groupmode="layer"
     id="layer1"
     transform="translate(-27.509398,-50.51791)">
    <g
       id="g3726">
      <path
         style="fill:#e8e8e8;stroke-width:0.26458335"
         d="m 100.71175,216.23382 c -4.600361,-0.38213 -7.041203,-0.768 -10.745021,-1.6987 C 76.64981,211.18882 64.162358,204.49908 54.277376,195.41573 41.916205,184.05699 33.54769,170.07917 29.551599,154.1166 28.103661,148.33275 27.55291,142.71076 27.55291,133.71428 c 0,-8.98218 0.551225,-14.62096 1.991578,-20.37291 2.879916,-11.50075 8.252259,-22.38108 15.654062,-31.703351 2.622584,-3.30304 9.803636,-10.481457 13.118839,-13.114024 9.30034,-7.385302 20.174538,-12.754538 31.64934,-15.627155 5.817807,-1.456438 11.369861,-2.000956 20.402311,-2.000956 9.03245,0 14.58451,0.544518 20.40232,2.000956 17.67532,4.424864 33.51169,14.61698 44.85952,28.871097 7.30367,9.174224 12.68975,20.096243 15.55561,31.544033 1.45366,5.80673 1.99796,11.39566 1.99982,20.53461 0.002,8.89066 -0.54916,14.47528 -1.99982,20.27002 -2.86973,11.46327 -8.16899,22.20556 -15.5995,31.62221 -2.64118,3.34715 -9.83017,10.53961 -13.16237,13.1687 -8.05298,6.35378 -17.04484,11.16323 -26.52328,14.18643 -8.31685,2.6527 -14.62446,3.47125 -26.19375,3.3992 -3.4925,-0.0217 -7.54063,-0.13845 -8.99584,-0.25932 z m 19.31459,-10.04713 c 11.53903,-1.52327 21.73209,-5.43238 31.88229,-12.2271 6.54524,-4.38149 14.06879,-11.91109 18.6907,-18.70572 5.23815,-7.70058 8.81056,-15.7451 10.92715,-24.60625 2.67141,-11.18395 2.58216,-23.74726 -0.24796,-34.90654 -7.18471,-28.329557 -30.46218,-49.588665 -59.41616,-54.264248 -4.32712,-0.698757 -10.35105,-0.992916 -15.38643,-0.751347 -31.789241,1.525069 -59.196006,24.025193 -67.021695,55.022775 -1.659909,6.57491 -1.963601,9.35355 -1.963601,17.96602 0,6.79179 0.0752,8.25777 0.579147,11.29071 2.329355,14.01881 8.148865,26.46795 17.232303,36.86346 2.811243,3.21732 3.208366,3.61783 6.119042,6.17121 4.363234,3.82762 7.245395,5.98118 11.137699,8.32211 14.202072,8.54149 30.942315,12.00642 47.467515,9.82492 z"
         id="path3756"
         inkscape:connector-curvature="0" />
      <path
         style="fill:#d7d7d7;stroke-width:0.26458335"
         d="m 100.13907,216.11992 c -11.971174,-1.08838 -25.066346,-5.89788 -36.07211,-13.2483 -20.236892,-13.5156 -34.072804,-36.29535 -36.129116,-59.48376 -0.772494,-8.71117 -0.32476,-20.13164 1.056742,-26.95465 1.59695,-7.88706 4.812566,-16.39865 8.964774,-23.729342 13.112142,-23.149405 37.380469,-39.172284 62.73611,-41.420783 8.3967,-0.744607 20.3449,-0.32032 26.48423,0.940467 25.77329,5.292866 47.55043,22.565228 58.71046,46.565732 5.18753,11.156166 7.28259,21.203426 7.28259,34.924996 0,8.77023 -0.69953,14.98071 -2.41355,21.42778 -4.95518,18.63826 -16.23213,34.91728 -32.11202,46.35581 -9.19776,6.6253 -21.12946,11.76298 -32.13855,13.83859 -6.04149,1.13903 -18.41506,1.50667 -26.36956,0.78346 z m 17.90289,-9.52303 c 4.73748,-0.53894 6.09008,-0.78043 10.31875,-1.84226 12.96329,-3.25513 24.36755,-9.7258 33.84522,-19.20346 17.41674,-17.41675 24.90443,-42.42083 19.95997,-66.65355 -4.99643,-24.487365 -22.55751,-45.070357 -45.90189,-53.800676 -13.93557,-5.211617 -29.53518,-6.077662 -43.903638,-2.4374 -12.96524,3.284755 -24.435785,9.808348 -33.854536,19.253943 -18.443018,18.495573 -25.617168,45.099533 -19.016812,70.520193 6.638964,25.56934 27.089774,45.82997 52.789235,52.29832 2.019046,0.50818 4.444899,1.05226 5.390785,1.20907 6.571326,1.0894 14.358146,1.34006 20.372916,0.65582 z"
         id="path3754"
         inkscape:connector-curvature="0" />
      <path
         style="fill:#c7c7c7;stroke-width:0.26458335"
         d="M 101.63779,216.2407 C 96.966792,215.78824 94.504976,215.38048 90.525294,214.40009 75.557891,210.71289 62.531477,203.3655 51.62465,192.45868 40.865604,181.69963 33.458228,168.67598 29.817092,154.1166 c -1.200235,-4.79923 -1.409845,-6.03366 -1.869461,-11.00961 -0.682636,-7.39041 -0.370562,-18.68774 0.678939,-24.57811 0.96507,-5.4165 3.34826,-13.08917 5.797095,-18.663726 6.12432,-13.941478 17.012076,-26.802539 29.907878,-35.328405 9.502542,-6.282463 19.980749,-10.555469 30.823959,-12.569991 5.579338,-1.036566 17.226438,-1.355543 24.606248,-0.673886 4.97595,0.459616 6.21037,0.669226 11.00961,1.869461 14.54486,3.637507 27.61782,11.073704 38.33769,21.807354 10.78805,10.801922 18.16364,23.766548 21.81296,38.342283 1.18242,4.7227 1.40273,6.02563 1.86636,11.03775 0.49716,5.37451 0.49716,13.35462 0,18.72913 -0.46363,5.01212 -0.68394,6.31505 -1.86636,11.03775 -3.64348,14.5524 -11.06261,27.59611 -21.80857,38.34208 -10.75905,10.75904 -23.78271,18.16642 -38.34208,21.80756 -4.79924,1.20023 -6.03366,1.40984 -11.00961,1.86946 -4.51193,0.41675 -14.31905,0.47358 -18.12396,0.105 z m 20.24063,-10.00888 c 29.18659,-4.84198 52.16226,-25.72411 59.5557,-54.12899 1.71357,-6.58336 2.09222,-9.91131 2.09222,-18.38855 0,-6.56354 -0.0776,-8.02059 -0.59847,-11.24479 -3.55978,-22.033 -16.25335,-40.739306 -35.30654,-52.030656 -7.74221,-4.588208 -16.66884,-7.774568 -26.00749,-9.283376 -3.2242,-0.52092 -4.68125,-0.598466 -11.2448,-0.598466 -8.47723,0 -11.805186,0.378649 -18.388538,2.092215 -25.933718,6.750231 -45.98905,26.807966 -52.670221,52.676533 -1.759598,6.81292 -2.083233,9.66962 -2.083233,18.38854 0,6.87158 0.07146,8.23247 0.59744,11.37709 3.70712,22.16353 16.250733,40.61385 35.277678,51.88973 8.017341,4.75129 17.728986,8.15287 26.683544,9.34614 1.67349,0.223 3.34037,0.45637 3.70417,0.5186 0.3638,0.0622 3.87614,0.0779 7.80521,0.0349 5.80738,-0.0636 7.78718,-0.18501 10.58333,-0.64889 z"
         id="path3752"
         inkscape:connector-curvature="0" />
      <path
         style="fill:#b6b6b6;stroke-width:0.26458335"
         d="M 100.84404,216.12285 C 88.096728,214.90418 74.293238,209.74445 63.140918,202.02944 43.334124,188.32739 30.098539,166.04178 27.945536,142.7687 25.787231,119.43829 31.756751,99.069684 45.952598,81.326784 59.346417,64.586312 80.308344,53.21749 101.35074,51.281283 c 23.30407,-2.144314 43.67927,3.833799 61.40581,18.016556 16.73903,13.392674 28.08867,34.312201 30.036,55.362031 1.51288,16.35365 -0.98695,31.26996 -7.52574,44.90546 -12.46002,25.98319 -37.96726,44.01358 -65.90143,46.58397 -4.93779,0.45436 -13.62175,0.44195 -18.52134,-0.0265 z m 14.7121,-9.12598 c 10.35349,-0.82415 19.29038,-3.30294 28.14946,-7.80771 18.82745,-9.5736 32.67655,-26.85713 37.83575,-47.21862 3.69435,-14.58027 2.90991,-29.74154 -2.27068,-43.88664 -1.28792,-3.51655 -4.74041,-10.465193 -6.82474,-13.735814 -7.28778,-11.435588 -17.28532,-20.415254 -29.35747,-26.368523 -10.93436,-5.392175 -20.57598,-7.64556 -32.71942,-7.646998 -12.091518,-0.0014 -21.820359,2.269553 -32.676038,7.627506 -17.41487,8.595322 -30.577366,23.630184 -36.950134,42.206299 -2.898066,8.44763 -4.326681,19.17953 -3.707004,27.84739 0.799458,11.1826 3.239011,20.05325 8.114362,29.50527 9.563718,18.54154 26.804939,32.25252 46.995654,37.373 7.788823,1.9753 15.88868,2.70356 23.41026,2.10484 z"
         id="path3750"
         inkscape:connector-curvature="0" />
      <path
         style="fill:#a7a7a7;stroke-width:0.26458335"
         d="M 101.37321,216.12554 C 85.882192,214.55477 71.075066,208.4731 58.51071,198.52081 54.94438,195.6959 48.387425,189.13895 45.562517,185.57262 35.475669,172.83839 29.49995,158.16494 27.945267,142.31324 c -1.930274,-19.68126 2.56257,-38.12869 13.242193,-54.371873 3.189552,-4.851151 6.080457,-8.368374 10.560374,-12.848292 9.708889,-9.70889 20.506829,-16.293177 33.618084,-20.499387 13.634959,-4.374218 30.376272,-4.914471 44.792592,-1.445485 11.43008,2.750407 22.53484,8.207605 32.06887,15.759555 3.56633,2.824908 10.12328,9.381863 12.94819,12.948193 8.63595,10.902524 14.42614,23.661549 16.83456,37.095949 1.52,8.47867 1.52,21.0461 0,29.52477 -2.40842,13.4344 -8.19861,26.19343 -16.83456,37.09595 -2.82491,3.56633 -9.38186,10.12328 -12.94819,12.94819 -12.90098,10.21894 -28.09891,16.32008 -44.18542,17.73805 -4.01673,0.35406 -12.53402,0.28594 -16.66875,-0.13332 z m 19.71146,-9.64994 c 15.81132,-2.38802 30.12447,-9.58043 41.29486,-20.75083 11.18424,-11.18423 18.32016,-25.40456 20.78862,-41.42715 0.85477,-5.54827 0.85436,-15.62358 -7.9e-4,-21.16667 -1.30143,-8.43512 -3.5572,-15.49894 -7.31353,-22.90197 -9.51104,-18.744356 -27.00488,-32.690301 -47.42843,-37.809503 -6.59005,-1.651812 -10.41215,-2.095345 -18.05636,-2.095345 -7.78148,0 -11.573763,0.45336 -18.388538,2.198313 -25.886532,6.628364 -46.174934,26.916766 -52.803298,52.803295 -1.744953,6.81478 -2.198313,10.60706 -2.198313,18.38854 0,7.78149 0.45336,11.57377 2.198313,18.38855 6.628394,25.88665 26.910717,46.16926 52.803298,52.80404 3.47966,0.89164 9.186678,1.86944 12.832288,2.19861 3.11917,0.28163 12.68961,-0.0888 16.27188,-0.62988 z"
         id="path3748"
         inkscape:connector-curvature="0" />
      <path
         style="fill:#979797;stroke-width:0.26458335"
         d="M 101.77009,216.13519 C 84.672766,214.35967 68.59827,207.40367 55.997168,196.32765 39.778508,182.07189 30.113188,163.39097 27.948641,142.11607 25.854874,121.53685 31.440086,101.0248 43.6364,84.501784 55.238623,68.783611 71.813949,57.768104 90.803199,53.156024 c 14.337091,-3.48217 30.185021,-2.954479 44.515371,1.482236 23.38824,7.241061 42.75346,25.142333 51.91185,47.98748 4.04885,10.09964 5.94275,20.00731 5.94275,31.08854 0,22.38494 -8.4637,42.90099 -24.18342,58.62071 -13.90854,13.90854 -31.55463,22.13251 -51.34466,23.92921 -3.84108,0.34872 -11.90584,0.28319 -15.875,-0.12901 z m 15.74964,-9.13338 c 12.90657,-1.53497 23.80671,-5.42226 33.66358,-12.00533 4.32577,-2.88904 7.01583,-5.1113 11.07396,-9.14822 5.86578,-5.83512 9.77849,-11.16613 13.50444,-18.3996 7.33089,-14.232 9.75965,-29.65166 7.20972,-45.77292 -1.88857,-11.93999 -7.35792,-24.260506 -15.0929,-33.998956 -2.2978,-2.892967 -8.57902,-9.174184 -11.47199,-11.471987 -6.61715,-5.255818 -15.0485,-9.814104 -22.88645,-12.373223 -11.44603,-3.737166 -23.07472,-4.635907 -35.189588,-2.719676 -11.963569,1.8923 -23.985842,7.218415 -33.811888,14.979367 -3.216751,2.540701 -9.15774,8.445809 -11.655913,11.585519 -7.996574,10.050108 -13.202021,22.019846 -15.303387,35.189586 -0.527892,3.30841 -0.612146,4.8015 -0.612146,10.84791 0,6.04642 0.08425,7.53951 0.612146,10.84792 1.36992,8.5856 3.677867,15.66078 7.555099,23.1607 3.575426,6.91613 7.545149,12.31685 13.23716,18.00886 12.091988,12.09199 26.659153,19.04917 44.476847,21.24184 2.64375,0.32534 12.0412,0.34339 14.69131,0.0282 z"
         id="path3746"
         inkscape:connector-curvature="0" />
      <path
         style="fill:#878787;stroke-width:0.26458335"
         d="m 104.15134,216.35252 c -14.306139,-1.1814 -28.400303,-6.04373 -39.85478,-13.74945 -29.29418,-19.70695 -42.866921,-55.33566 -34.124514,-89.5775 6.172536,-24.17629 22.954693,-44.240219 45.72,-54.660602 25.879504,-11.845847 56.734314,-9.413065 80.340034,6.334499 29.42147,19.627306 43.10065,55.366583 34.33396,89.703533 -5.05655,19.80524 -17.1978,36.89443 -34.33396,48.3261 -13.5993,9.07221 -29.82591,13.89616 -46.25991,13.75246 -2.61938,-0.0229 -5.23875,-0.081 -5.82083,-0.12904 z m 17.72708,-9.85925 c 20.06814,-3.34756 36.94736,-13.87248 48.82686,-30.44565 4.93447,-6.8841 9.02731,-15.95783 11.21836,-24.87083 1.59121,-6.47291 1.86728,-9.0547 1.86728,-17.46251 0,-8.4078 -0.27607,-10.98959 -1.86728,-17.4625 -2.7388,-11.14116 -7.90725,-21.376263 -15.08129,-29.865491 -2.19903,-2.602161 -7.09751,-7.476529 -9.64427,-9.596789 -9.75653,-8.122608 -22.18653,-13.685119 -35.53833,-15.903644 -3.03294,-0.503951 -4.49892,-0.579148 -11.29071,-0.579148 -6.79178,0 -8.25776,0.0752 -11.290701,0.579148 C 85.915873,63.072921 74.665176,68.030755 64.199251,76.25599 61.591285,78.305607 54.453324,85.525396 52.38473,88.205951 44.518624,98.399119 39.736334,109.41173 37.563041,122.3372 c -0.530087,3.15265 -0.600576,4.48797 -0.600576,11.37708 0,6.88912 0.07049,8.22444 0.600576,11.37709 2.175365,12.93779 6.933347,23.89059 14.826875,34.13125 2.234199,2.89854 9.572257,10.23659 12.470794,12.47079 6.719266,5.17923 13.676413,8.96672 21.299144,11.5953 5.354899,1.84656 8.88447,2.6294 17.197736,3.81438 0.43656,0.0622 4.00843,0.0796 7.9375,0.0385 5.84143,-0.061 7.77079,-0.1792 10.58333,-0.64836 z"
         id="path3744"
         inkscape:connector-curvature="0" />
      <path
         style="fill:#767676;stroke-width:0.26458335"
         d="M 103.35759,216.25514 C 90.62198,214.82497 80.000414,211.58885 70.255818,206.16986 49.458483,194.60441 34.72336,174.87408 29.580769,151.70595 26.725833,138.84405 26.931457,126.03734 30.201,113.07678 36.427254,88.395752 54.305239,67.558586 77.825293,57.56968 c 18.998793,-8.06874 40.300497,-8.784988 59.830417,-2.011736 28.18628,9.775401 49.09893,34.327169 54.17668,63.604256 1.04838,6.04472 1.21561,8.04661 1.21561,14.55208 0,6.50548 -0.16723,8.50737 -1.21561,14.55209 -4.49765,25.93237 -21.67226,48.63607 -45.34772,59.9467 -8.55831,4.08862 -15.86174,6.24907 -25.92917,7.67021 -3.43756,0.48526 -14.12943,0.71644 -17.19791,0.37186 z m 11.90625,-8.99214 c 10.52431,-0.75403 19.54582,-3.25945 28.79071,-7.99565 18.81281,-9.63788 32.57129,-26.8829 37.75493,-47.3224 5.35115,-21.09999 1.15294,-43.45517 -11.49399,-61.204664 C 160.40209,76.827205 145.27086,66.501799 128.59971,62.273846 113.35262,58.407047 97.263657,59.504151 82.526691,65.415557 78.19734,67.15218 71.836825,70.607462 68.168001,73.215764 53.498096,83.64514 43.243773,98.468572 38.928605,115.48362 c -6.406496,25.26132 0.924789,51.96665 19.314619,70.35649 12.476507,12.4765 29.1919,20.14362 46.665176,21.40467 4.30867,0.31095 6.22265,0.31432 10.35544,0.0182 z"
         id="path3742"
         inkscape:connector-curvature="0" />
      <path
         style="fill:#676767;stroke-width:0.26458335"
         d="m 104.94509,216.37458 c -0.43657,-0.0605 -1.92485,-0.23506 -3.3073,-0.38784 C 76.927358,213.25591 54.94683,199.92407 41.460106,179.4872 33.737128,167.78432 29.542392,155.88824 27.959535,141.20019 26.504775,127.70081 29.213308,112.08548 35.292907,98.921576 46.622933,74.38914 69.439475,56.87168 96.081544,52.25094 c 5.982276,-1.037553 8.061166,-1.214228 14.287496,-1.214228 6.22547,0 8.30211,0.176438 14.2875,1.213914 16.82379,2.916144 32.04947,10.832628 44.1965,22.979663 12.14583,12.145825 20.01695,27.279851 22.98635,44.196491 1.75109,9.97596 1.75109,18.59905 0,28.57501 -4.69819,26.76552 -22.04144,49.33494 -46.7222,60.80133 -7.64435,3.55148 -15.33058,5.74305 -24.82627,7.0787 -2.74354,0.3859 -13.60188,0.73456 -15.34583,0.49276 z m 15.875,-9.62981 c 13.36999,-1.99044 25.36687,-7.18391 35.85104,-15.51999 2.89147,-2.29905 8.90936,-8.31694 11.2084,-11.20841 9.20414,-11.57591 14.68907,-25.33507 16.0319,-40.21667 1.65427,-18.33307 -4.22169,-37.53398 -16.0319,-52.387499 -2.28785,-2.8774 -8.30278,-8.896073 -11.2084,-11.215385 C 148.31812,69.529322 138.55739,64.69611 128.35114,62.173629 105.74652,56.586883 82.304081,61.703247 64.06696,76.203794 61.175492,78.502836 55.157595,84.520733 52.858553,87.412201 44.526883,97.890817 39.391957,109.76978 37.30402,123.39553 c -0.845532,5.5179 -0.845532,15.11961 0,20.63751 1.759782,11.48423 5.489322,21.29606 11.565533,30.42708 3.111131,4.67525 5.252888,7.28092 9.36281,11.39085 4.109923,4.10992 6.715596,6.25167 11.390847,9.36281 10.153825,6.75683 21.36925,10.69537 34.2842,12.03964 3.77254,0.39268 12.65222,0.12562 16.91268,-0.50865 z"
         id="path3740"
         inkscape:connector-curvature="0" />
      <path
         style="fill:#575757;stroke-width:0.26458335"
         d="M 105.07738,216.37101 C 95.991067,215.3032 90.311053,214.15224 84.307585,212.16239 59.51284,203.94415 40.043406,184.47974 31.907428,159.77574 c -1.704439,-5.17533 -2.600398,-9.11164 -3.613373,-15.875 -0.493678,-3.29615 -0.592301,-5.0449 -0.581938,-10.31875 0.0108,-5.49453 0.106406,-6.96137 0.709698,-10.88813 0.911701,-5.93416 2.003332,-10.59218 3.605059,-15.38292 8.165821,-24.423802 27.515023,-43.773004 51.938827,-51.938825 4.786019,-1.600151 9.442387,-2.69188 15.38292,-3.606671 3.965699,-0.610683 5.355789,-0.699628 11.020419,-0.705143 5.77361,-0.0056 6.98722,0.07261 11.10083,0.715563 13.3963,2.093833 24.22684,6.148411 34.33826,12.855056 22.77919,15.108845 36.42352,39.71136 37.28583,67.23128 0.27761,8.85945 -1.30053,19.00337 -4.40437,28.31042 -11.02402,33.05611 -42.06065,55.67924 -77.12992,56.22133 -3.05594,0.0472 -5.97297,0.0369 -6.48229,-0.0229 z m 12.9662,-9.22793 c 9.58495,-1.13071 16.73046,-3.21051 25.00151,-7.27704 7.85042,-3.85972 13.01541,-7.57954 19.46444,-14.01827 6.07881,-6.0691 9.90689,-11.28682 13.5959,-18.5314 3.69835,-7.26292 6.02158,-14.50731 7.33956,-22.88646 0.85098,-5.41016 0.85331,-16.07904 0.005,-21.43125 C 181.41642,110.17513 176.85048,99.312659 169.15851,88.999701 166.17646,85.001534 159.08179,77.90687 155.08363,74.92482 144.76631,67.229603 133.86407,62.648443 121.08467,60.63834 115.67451,59.787363 105.00563,59.785032 99.653419,60.633659 86.825691,62.667576 75.942865,67.243152 65.65446,74.928185 61.662736,77.909846 54.564605,85.007977 51.582944,88.999701 39.07849,105.74015 34.188627,125.81484 37.629923,146.28199 c 1.5491,9.2133 5.200357,18.79467 10.18354,26.72292 5.588041,8.89059 14.297763,17.6037 23.264955,23.27402 3.028683,1.91516 10.075987,5.38565 13.43627,6.61678 10.704497,3.92187 23.040842,5.48461 33.528892,4.24737 z"
         id="path3738"
         inkscape:connector-curvature="0" />
      <path
         style="fill:#474747;stroke-width:0.26458335"
         d="M 104.41592,216.26043 C 91.084927,214.88684 79.583529,211.31762 69.144626,205.31472 62.721329,201.621 57.9717,198.00044 52.470166,192.60408 c -5.548445,-5.44239 -9.887473,-11.03034 -13.651239,-17.58055 -5.006455,-8.71291 -8.452355,-18.38857 -9.906234,-27.81549 -0.280539,-1.81902 -0.671142,-4.37886 -0.868007,-5.68855 -0.453303,-3.0157 -0.47297,-13.10103 -0.03018,-15.47812 0.176192,-0.94589 0.509055,-3.08901 0.739695,-4.7625 C 30.08118,111.6505 33.771088,101.0728 38.8529,92.329376 42.586214,85.906084 46.137854,81.260905 51.479257,75.815407 60.79396,66.319174 71.53966,59.609773 84.175295,55.400652 c 10.559392,-3.517493 22.932395,-5.163453 31.882295,-4.241248 14.37099,1.480798 25.5986,5.051646 36.90937,11.738723 9.47249,5.600262 18.91024,14.456696 25.47215,23.903198 6.83065,9.833402 11.94116,22.841945 13.54478,34.477545 0.23064,1.67349 0.5635,3.81661 0.73969,4.7625 0.44279,2.37709 0.42313,12.46242 -0.0302,15.47812 -0.19686,1.30969 -0.58747,3.86953 -0.868,5.68855 -1.45125,9.40985 -4.89923,19.11109 -9.85592,27.73066 -3.69372,6.4233 -7.31428,11.17293 -12.71065,16.67446 -9.28306,9.46398 -20.12284,16.23268 -32.69604,20.41644 -10.5671,3.51623 -23.0886,5.16417 -32.14687,4.23083 z m 17.96482,-9.61723 c 11.68655,-2.0605 21.66053,-6.17025 30.82648,-12.70196 14.29606,-10.18744 24.33508,-24.81101 28.7219,-41.83841 1.80277,-6.99745 2.11258,-9.6941 2.11258,-18.38855 0,-6.95798 -0.0666,-8.19292 -0.61321,-11.37708 -2.09118,-12.18076 -6.43688,-22.695248 -13.22805,-32.005484 -10.25011,-14.052208 -24.66952,-23.856142 -41.44285,-28.177507 -6.99746,-1.802775 -9.6941,-2.112582 -18.38855,-2.112582 -6.95798,0 -8.19292,0.06656 -11.37708,0.613216 -16.34458,2.806019 -29.802257,9.706878 -41.171884,21.112213 -10.732761,10.766473 -17.634407,24.293364 -20.37577,39.935534 -0.841922,4.80399 -1.161806,14.29428 -0.647404,19.20711 1.81616,17.34532 9.161841,32.86311 21.324415,45.04794 10.623812,10.64325 23.991687,17.67866 38.753977,20.39592 5.643966,1.03887 7.104366,1.14551 14.552086,1.06265 6.17211,-0.0687 7.48334,-0.1612 10.95336,-0.77301 z"
         id="path3736"
         inkscape:connector-curvature="0" />
      <path
         style="fill:#373737;stroke-width:0.26458335"
         d="m 105.07738,216.25195 c -9.417963,-0.89833 -17.739276,-2.84069 -25.621208,-5.98049 -20.611074,-8.21051 -37.480199,-25.09563 -45.689912,-45.73322 -3.117931,-7.83785 -4.78357,-15.04576 -5.991843,-25.92916 -0.298939,-2.69267 -0.118911,-10.43327 0.289217,-12.43542 0.148319,-0.7276 0.457423,-2.75167 0.686899,-4.49792 2.559904,-19.48016 13.218176,-38.493306 28.871335,-51.503168 11.577553,-9.62249 26.350535,-16.18318 40.708634,-18.078731 1.746248,-0.230539 3.829848,-0.563767 4.630208,-0.740506 0.90312,-0.19943 3.71374,-0.321343 7.40833,-0.321343 3.6946,0 6.50521,0.121913 7.40834,0.321343 0.80036,0.176739 2.88396,0.509967 4.63021,0.740506 8.11368,1.071165 17.50207,4.009522 25.03741,7.836148 24.73899,12.563047 41.08624,35.658729 44.8276,63.333251 1.10945,8.20649 1.10713,12.87542 -0.0105,21.03438 -4.4724,32.65137 -26.73252,58.92965 -57.94831,68.40853 -9.61577,2.91989 -21.14244,4.31785 -29.23646,3.5458 z m 13.09687,-9.00713 c 6.02182,-0.60093 13.37281,-2.37002 19.01508,-4.57619 23.5713,-9.21655 40.73203,-29.6521 45.67411,-54.3902 1.0729,-5.3705 1.37884,-8.60196 1.37884,-14.56415 0,-5.90684 -0.30537,-9.1269 -1.38001,-14.55208 -2.85842,-14.43034 -9.71449,-27.208924 -20.22943,-37.704315 -10.5855,-10.565812 -23.21115,-17.343541 -37.69966,-20.238001 -5.37049,-1.072898 -8.60195,-1.37883 -14.56414,-1.37883 -5.96218,0 -9.19364,0.305932 -14.564137,1.37883 -19.577418,3.911105 -35.986506,15.026057 -47.456554,32.145442 -2.063849,3.080353 -6.069082,11.035104 -7.420929,14.738624 -5.911057,16.19393 -5.908126,35.14886 0.0079,51.22067 1.179836,3.2052 4.211394,9.51751 5.998301,12.48967 6.125161,10.18794 15.171178,19.23461 25.335403,25.33723 2.975256,1.78635 9.2899,4.81865 12.479372,5.99262 10.304648,3.79287 22.059364,5.23494 33.425834,4.10068 z"
         id="path3734"
         inkscape:connector-curvature="0" />
      <path
         style="fill:#262626;stroke-width:0.26458335"
         d="m 105.87113,216.28269 c -12.620538,-1.25105 -22.839493,-4.02215 -32.357013,-8.77434 -24.216024,-12.0913 -41.127393,-35.52153 -44.669114,-61.88781 -0.302986,-2.25558 -0.665911,-4.51777 -0.8065,-5.02709 -0.479574,-1.73739 -0.406618,-13.61143 0.0855,-13.91558 0.123314,-0.0762 0.225468,-0.57802 0.22701,-1.11514 0.0086,-2.98104 1.885277,-12.07736 3.576037,-17.33275 9.545855,-29.671397 35.643658,-51.737801 66.244298,-56.011364 2.124822,-0.296744 4.458632,-0.679993 5.186242,-0.851663 1.75702,-0.41455 12.62356,-0.428913 14.03703,-0.01855 0.57432,0.166736 2.83015,0.549106 5.01297,0.849711 14.11397,1.943696 27.80583,7.83085 39.15833,16.837094 16.38015,12.99481 27.14218,31.508102 30.28249,52.093182 0.29781,1.95217 0.54147,3.96824 0.54147,4.48016 0,0.51192 0.10089,0.99311 0.22421,1.06932 0.50141,0.30989 0.57064,11.43526 0.0857,13.77563 -0.15163,0.73182 -0.51992,3.11651 -0.81842,5.29933 -3.10781,22.72624 -16.18143,43.45202 -35.68579,56.5731 -10.005,6.73062 -22.40881,11.43059 -34.31718,13.00325 -1.74625,0.23061 -3.77031,0.53482 -4.49792,0.67601 -1.78363,0.34612 -9.04978,0.52131 -11.50937,0.2775 z m 14.94896,-9.26962 c 13.40678,-1.98244 25.21357,-7.09375 35.98333,-15.57763 2.39054,-1.88314 9.40364,-8.89624 11.28678,-11.28678 10.66286,-13.53584 16.36037,-29.70663 16.36037,-46.43438 0,-16.72794 -5.66072,-32.80055 -16.35402,-46.434371 -1.84803,-2.356212 -8.86707,-9.369714 -11.29313,-11.284211 -10.83171,-8.547722 -22.36448,-13.529107 -36.11563,-15.599529 -5.88269,-0.885719 -14.75481,-0.885719 -20.6375,0 -13.750265,2.07029 -25.247261,7.035403 -36.115622,15.596957 -2.390537,1.883147 -9.403636,8.896246 -11.286783,11.286783 -8.778353,11.143573 -13.614255,22.522451 -15.74231,37.041671 -0.648456,4.42426 -0.648456,14.36115 0,18.78541 2.128055,14.51922 6.963957,25.8981 15.74231,37.04167 1.883147,2.39054 8.896246,9.40364 11.286783,11.28678 11.836265,9.32402 24.677476,14.49054 39.972742,16.08257 3.75586,0.39093 12.64985,0.1254 16.91268,-0.50494 z"
         id="path3732"
         inkscape:connector-curvature="0" />
      <path
         style="fill:#161616;stroke-width:0.26458335"
         d="m 106.79717,216.25184 c -14.048186,-1.45226 -22.809813,-3.73597 -32.543752,-8.48249 -16.557797,-8.074 -29.865439,-21.38164 -37.939442,-37.93944 -4.856854,-9.96021 -7.077771,-18.64042 -8.512808,-33.27135 -0.563435,-5.74451 1.258675,-18.62744 3.843083,-27.1719 6.631758,-21.92563 23.316819,-41.018871 44.085074,-50.447938 9.880063,-4.485682 17.717469,-6.408411 31.746515,-7.788285 4.53906,-0.446455 14.98157,0.739572 22.34008,2.537313 22.21351,5.426932 40.65605,19.271803 52.02991,39.059006 5.7345,9.976364 8.8891,19.726174 10.43021,32.236274 0.85961,6.97797 0.95242,8.59452 0.66305,11.54913 -1.13055,11.54365 -2.59718,18.60848 -5.4365,26.18792 -6.65337,17.76084 -19.49967,32.89404 -35.95607,42.35694 -10.1265,5.82302 -19.50784,8.8764 -32.44623,10.56039 -6.83574,0.8897 -8.72682,0.98414 -12.30312,0.61443 z m 15.34583,-9.34707 c 7.32947,-1.25827 12.73181,-2.90224 19.21201,-5.84634 19.94142,-9.05983 35.196,-27.20151 40.69795,-48.40046 1.88065,-7.24613 2.52655,-13.10106 2.3233,-21.06035 -0.15982,-6.25876 -0.81201,-11.01821 -2.28767,-16.69473 -5.55659,-21.37479 -20.6925,-39.398979 -40.77787,-48.559227 -6.38525,-2.912094 -11.83907,-4.566815 -19.30001,-5.855738 -3.7958,-0.655747 -4.66229,-0.70848 -11.64167,-0.70848 -6.97937,0 -7.84586,0.05273 -11.641663,0.70848 C 82.47815,63.295077 69.212415,70.074334 57.970756,81.315997 46.643005,92.643746 39.8283,106.08589 37.040275,122.60178 c -0.529905,3.13909 -0.602963,4.48554 -0.602963,11.1125 0,6.62697 0.07306,7.97342 0.602963,11.11251 2.783498,16.48908 9.621122,29.97643 20.930481,41.28578 11.347831,11.34783 25.414769,18.45951 41.285788,20.87242 5.053756,0.76833 4.990006,0.76481 12.303126,0.67885 5.66717,-0.0666 7.18303,-0.17533 10.58333,-0.75907 z"
         id="path3730"
         inkscape:connector-curvature="0" />
      <path
         style="fill:#000000;stroke-width:0.26458335"
         d="m 108.12009,216.22642 c -0.87313,-0.12857 -2.68743,-0.34167 -4.03178,-0.47356 -6.06637,-0.59515 -12.284171,-1.76297 -17.255917,-3.24098 -31.792736,-9.45139 -55.194238,-37.78089 -58.20595,-70.46322 -0.160918,-1.74625 -0.433678,-3.94891 -0.606132,-4.89479 -0.369862,-2.02864 -0.326657,-7.23425 0.06112,-7.3635 0.14673,-0.0489 0.266782,-0.64811 0.266782,-1.33155 0,-1.88669 0.733243,-7.44517 1.47067,-11.1487 5.267663,-26.455418 23.637115,-48.84561 48.800164,-59.481636 7.289938,-3.081342 17.380229,-5.530831 24.738543,-6.005455 1.4552,-0.09386 2.82442,-0.236692 3.0427,-0.317397 0.21829,-0.08071 0.69454,-0.182364 1.05834,-0.22591 0.3638,-0.04355 1.19724,-0.142197 1.85208,-0.219226 0.65484,-0.07703 1.96453,-0.02421 2.91042,0.117383 0.94588,0.14159 2.96995,0.372154 4.49791,0.512366 17.12254,1.571217 32.1403,7.51965 45.11146,17.868347 3.67211,2.929688 9.93889,9.203138 12.81291,12.826525 8.15174,10.27724 13.76747,22.327603 16.2758,34.925003 0.74081,3.72052 1.47067,9.2643 1.47067,11.17074 0,0.71371 0.12207,1.26467 0.2802,1.26467 0.15411,0 0.22866,0.0893 0.16567,0.19844 -0.063,0.10914 -0.0165,0.99048 0.10332,1.95853 0.12732,1.02868 0.10946,2.56794 -0.043,3.70416 -0.14345,1.06925 -0.37354,3.07518 -0.5113,4.45763 -0.91434,9.17523 -2.51665,16.09788 -5.48101,23.6802 -2.93997,7.51992 -7.42174,15.26227 -12.48447,21.56718 -2.85673,3.55765 -8.89523,9.59615 -12.45288,12.45288 -12.75562,10.24254 -29.5929,16.93356 -44.9828,17.87586 -1.23693,0.0757 -2.54662,0.23823 -2.91042,0.3611 -1.06153,0.35852 -4.23223,0.47831 -5.95312,0.22491 z m 7.9375,-8.44064 c 12.90937,-1.10171 24.60323,-5.08377 35.07229,-11.94302 15.25305,-9.99369 26.3821,-25.43838 31.04122,-43.07847 4.72431,-17.88691 2.63309,-36.91737 -5.85198,-53.253974 C 169.01986,85.456795 157.80505,74.378827 143.72338,67.312315 115.12343,52.960188 80.459662,58.55764 57.83603,81.181271 40.148108,98.869194 32.585638,124.15409 37.613252,148.79554 c 4.400799,21.56928 18.667647,40.49426 38.221258,50.7005 12.417404,6.48141 26.7647,9.43831 40.22308,8.28974 z"
         id="path3728"
         inkscape:connector-curvature="0" />
    </g>
  </g>
</svg>
