<?xml version="1.0" encoding="UTF-8" standalone="no"?>
<svg
   xmlns:dc="http://purl.org/dc/elements/1.1/"
   xmlns:cc="http://creativecommons.org/ns#"
   xmlns:rdf="http://www.w3.org/1999/02/22-rdf-syntax-ns#"
   xmlns:svg="http://www.w3.org/2000/svg"
   xmlns="http://www.w3.org/2000/svg"
   viewBox="0 0 505 269"
   height="269"
   width="505"
   id="svg7899"
   version="1.1">
  <metadata
     id="metadata7905">
    <rdf:RDF>
      <cc:Work
         rdf:about="">
        <dc:format>image/svg+xml</dc:format>
        <dc:type
           rdf:resource="http://purl.org/dc/dcmitype/StillImage" />
        <dc:title></dc:title>
      </cc:Work>
    </rdf:RDF>
  </metadata>
  <defs
     id="defs7903" />
  <path
     id="path7909"
     d="m 131.75,259.9199 c -3.0418,-1.77168 -2.03206,-5.77869 3.094,-12.27811 7.21956,-9.1538 16.80081,-26.25198 21.66165,-38.65622 L 160.81057,198 h -8.66146 -8.66145 l -4.99383,11.17648 c -6.91974,15.48677 -18.87419,37.19866 -24.25122,44.04552 l -4.49364,5.72199 -4.36305,-3.1333 c -2.71374,-1.94886 -4.05699,-3.54486 -3.55339,-4.222 0.44531,-0.59878 2.40047,-3.11369 4.34478,-5.58869 6.01577,-7.65773 15.81827,-25.5053 20.32523,-37.00648 l 4.30179,-10.97761 -58.652164,-0.25796 C 14.252651,197.50331 13.5,197.47434 13.5,195.5 c 0,-1.97195 0.833333,-2.00701 59.420391,-2.5 l 59.420389,-0.5 2.33543,-7.5 C 138.95839,171.24822 142,150.89823 142,136 c 0,-14.56676 -2.84883,-33.90869 -7.29075,-49.5 l -2.27917,-8 L 72.96504,78 C 14.333333,77.507007 13.5,77.471972 13.5,75.5 c 0,-1.974335 0.752651,-2.00331 58.652166,-2.257953 L 130.80433,72.984094 126.53095,62.078976 C 121.89923,50.259438 111.43072,31.495039 105.00804,23.5 l -4.01666,-5 2.75431,-2.299438 c 5.51478,-4.604014 5.58691,-4.589521 10.44346,2.098281 5.99281,8.252518 14.68498,23.979591 22.44893,40.617701 L 142.97662,72.5 l 8.93126,0.286461 8.93126,0.286462 -4.3192,-11.022033 C 151.64635,49.61413 142.07064,32.520988 134.844,23.358207 c -5.29097,-6.708517 -5.87486,-9.115316 -2.87088,-11.833877 1.84538,-1.6700489 4.48338,-1.7502448 40.75,-1.238809 44.2959,0.624665 59.52646,1.999329 80.27688,7.245551 36.0095,9.104093 75.70842,29.322249 99.93506,50.895656 19.78236,17.615843 41.05835,42.217432 50.62069,58.533082 l 3.52815,6.01987 45.20805,0.26016 C 496.74661,133.49566 497.5,133.53333 497.5,135.5 c 0,1.96669 -0.75339,2.00433 -45.23831,2.26018 l -45.23832,0.26018 -2.62043,5.23982 c -1.44124,2.8819 -6.47817,10.41482 -11.19319,16.73982 -24.1382,32.38037 -53.23697,56.98443 -87.96465,74.37725 -27.76637,13.90635 -46.61036,19.6638 -80.54995,24.61064 -12.00105,1.7492 -18.8609,2.00814 -52.5,1.9817 -24.41694,-0.0192 -39.34089,-0.40651 -40.44515,-1.04969 z m 91.56678,-11.93582 c 41.98006,-6.41942 69.83577,-16.67801 101.34333,-37.32229 23.78367,-15.58345 40.27065,-31.66101 59.94156,-58.453 5.771,-7.86017 10.73514,-14.92292 11.03141,-15.695 C 396.2306,134.95668 393.52141,130.75897 381.42545,114.5 353.96375,77.586931 324.37853,55.402782 277.54929,36.609607 262.18286,30.442863 243.76444,25.936642 223.5,23.386 211.31252,21.851987 147,20.071658 147,21.268291 c 0,0.261423 2.53844,4.920503 5.64097,10.353512 10.97948,19.226721 18.99918,37.39801 22.74743,51.541811 10.1254,38.207656 10.1552,66.892726 0.10949,105.413536 -3.63284,13.93033 -11.77487,32.39574 -22.78432,51.67285 L 147.1452,250 h 31.49418 c 26.55074,0 33.56346,-0.31643 44.6774,-2.01592 z M 164.67842,185 C 168.96031,171.23613 172,150.89289 172,136 c 0,-14.56164 -2.84644,-33.89307 -7.28858,-49.5 l -2.27701,-8 -9.29684,-0.28858 c -8.53671,-0.264984 -9.25264,-0.142341 -8.75626,1.5 8.77617,29.0373 10.83964,57.63734 6.15349,85.28858 -1.35155,7.975 -3.34775,17.55403 -4.436,21.28673 l -1.97864,6.78673 9.11252,-0.28673 9.11251,-0.28673 z"
     style="fill:#000000" />
</svg>
