<?xml version="1.0" encoding="UTF-8" standalone="no"?>
<svg
   xmlns:dc="http://purl.org/dc/elements/1.1/"
   xmlns:cc="http://creativecommons.org/ns#"
   xmlns:rdf="http://www.w3.org/1999/02/22-rdf-syntax-ns#"
   xmlns:svg="http://www.w3.org/2000/svg"
   xmlns="http://www.w3.org/2000/svg"
   xmlns:sodipodi="http://sodipodi.sourceforge.net/DTD/sodipodi-0.dtd"
   xmlns:inkscape="http://www.inkscape.org/namespaces/inkscape"
   viewBox="0 0 307.11343 250.96309"
   height="250.96309"
   width="307.11343"
   id="svg7899"
   version="1.1"
   sodipodi:docname="XOR.svg"
   inkscape:version="0.92.3 (2405546, 2018-03-11)">
  <sodipodi:namedview
     pagecolor="#ffffff"
     bordercolor="#666666"
     borderopacity="1"
     objecttolerance="10"
     gridtolerance="10"
     guidetolerance="10"
     inkscape:pageopacity="0"
     inkscape:pageshadow="2"
     inkscape:window-width="1920"
     inkscape:window-height="1017"
     id="namedview32"
     showgrid="false"
     fit-margin-top="0"
     fit-margin-left="0"
     fit-margin-right="0"
     fit-margin-bottom="0"
     inkscape:zoom="1.4376238"
     inkscape:cx="294.74844"
     inkscape:cy="95.187839"
     inkscape:window-x="-8"
     inkscape:window-y="-8"
     inkscape:window-maximized="1"
     inkscape:current-layer="svg7899" />
  <metadata
     id="metadata7905">
    <rdf:RDF>
      <cc:Work
         rdf:about="">
        <dc:format>image/svg+xml</dc:format>
        <dc:type
           rdf:resource="http://purl.org/dc/dcmitype/StillImage" />
        <dc:title></dc:title>
      </cc:Work>
    </rdf:RDF>
  </metadata>
  <defs
     id="defs7903" />
  <path
     id="path7909"
     d="M 25.53957,52.070739 C 20.90785,40.251201 10.43934,21.486802 4.01666,13.491763 L 0,8.4917632 2.75431,6.1923252 C 8.26909,1.5883112 8.34122,1.6028042 13.19777,8.2906062 19.19058,16.543124 27.88275,32.270197 35.6467,48.908307 l 5.1089,13.460491 19.09216,0.695888 -4.3192,-11.022033 C 50.65497,39.605893 41.07926,22.512751 33.85262,13.34997 28.56165,6.6414532 27.97776,4.2346542 30.98174,1.5160932 c 1.84538,-1.67004886 4.48338,-1.75024476 40.75,-1.23880896 44.2959,0.624665 59.52646,1.99932896 80.27688,7.24555096 36.0095,9.1040928 75.70842,29.3222488 99.93506,50.8956558 19.78236,17.615843 41.05835,42.217429 50.62069,58.533079 l 3.52815,6.01987 v 0 l 1.0209,2.52032 -1.08143,2.52036 v 0 l -2.62043,5.23982 c -1.44124,2.8819 -6.47817,10.41482 -11.19319,16.73982 -24.1382,32.38037 -53.23697,56.98443 -87.96465,74.37725 -27.76637,13.90635 -46.61036,19.6638 -80.54995,24.61064 -12.00105,1.7492 -18.8609,2.00814 -52.5,1.9817 -24.41694,-0.0192 -39.34089,-0.40651 -40.44515,-1.04969 -3.0418,-1.77168 -2.03206,-5.77869 3.094,-12.27811 7.21956,-9.1538 16.80081,-26.25198 21.66165,-38.65622 l 5.83954,-16.48557 -18.22503,0.57346 -5.62633,16.10302 c -5.59492,16.01311 -18.87419,37.19866 -24.25122,44.04552 l -4.49364,5.72199 -4.36305,-3.1333 c -2.71374,-1.94886 -4.05699,-3.54486 -3.55339,-4.222 0.44531,-0.59878 2.40047,-3.11369 4.34478,-5.58869 6.01577,-7.65773 15.81827,-25.5053 20.32523,-37.00648 l 4.30179,-10.97761 v 0 l 1.53645,-5.51591 v 0 0 l 2.33543,-7.5 c 4.28218,-13.75178 7.32379,-34.10177 7.32379,-49 0,-14.56676 -2.84883,-33.908687 -7.29075,-49.499997 M 122.3254,237.97584 c 41.98006,-6.41942 69.83577,-16.67801 101.34333,-37.32229 23.78367,-15.58345 40.27065,-31.66101 59.94156,-58.453 5.771,-7.86017 10.73514,-14.92292 11.03141,-15.695 0.59752,-1.55711 -2.11167,-5.75482 -14.20763,-22.01379 C 252.97237,67.578694 223.38715,45.394545 176.55791,26.60137 161.19148,20.434626 142.77306,15.928405 122.50862,13.377763 c -12.18748,-1.534013 -76.5,-3.314342 -76.5,-2.117709 0,0.261423 2.53844,4.920503 5.64097,10.353512 10.97948,19.226721 18.99918,37.39801 22.74743,51.541811 10.1254,38.207653 10.1552,66.892723 0.10949,105.413533 -3.63284,13.93033 -11.77487,32.39574 -22.78432,51.67285 l -5.56837,9.75 H 77.648 c 26.55074,0 33.56346,-0.31643 44.6774,-2.01592 z M 63.68704,174.99176 c 4.28189,-13.76387 7.32158,-34.10711 7.32158,-49 0,-14.56164 -2.79213,-33.908627 -7.28858,-49.499997 L 59.84776,63.064686 40.7556,62.368798 c 8.77617,29.037305 13.47397,64.971722 8.78782,92.622962 -1.35155,7.975 -3.34775,17.55403 -4.436,21.28673 l -1.97864,6.78673 18.22503,-0.57346 z"
     style="fill:#000000"
     inkscape:connector-curvature="0"
     sodipodi:nodetypes="cscsssccsscssssccccccsssscscccsscscsscccccsscssscsssssssscsssssccssccs" />
</svg>
